<?xml version="1.0" encoding="UTF-8" ?>
<svg version="1.1" width="32" height="32" xmlns="http://www.w3.org/2000/svg" shape-rendering="crispEdges">
<rect x="11" y="13" width="1" height="1" fill="#221F40" />
<rect x="12" y="13" width="1" height="1" fill="#221F40" />
<rect x="13" y="13" width="1" height="1" fill="#221F40" />
<rect x="14" y="13" width="1" height="1" fill="#221F40" />
<rect x="15" y="13" width="1" height="1" fill="#221F40" />
<rect x="10" y="14" width="1" height="1" fill="#221F40" />
<rect x="11" y="14" width="1" height="1" fill="#FFDDB7" />
<rect x="12" y="14" width="1" height="1" fill="#F1FBEC" />
<rect x="13" y="14" width="1" height="1" fill="#F1FBEC" />
<rect x="14" y="14" width="1" height="1" fill="#F1FBEC" />
<rect x="15" y="14" width="1" height="1" fill="#FFDDB7" />
<rect x="16" y="14" width="1" height="1" fill="#221F40" />
<rect x="17" y="14" width="1" height="1" fill="#221F40" />
<rect x="10" y="15" width="1" height="1" fill="#221F40" />
<rect x="11" y="15" width="1" height="1" fill="#F1FBEC" />
<rect x="12" y="15" width="1" height="1" fill="#221F40" />
<rect x="13" y="15" width="1" height="1" fill="#781546" />
<rect x="14" y="15" width="1" height="1" fill="#221F40" />
<rect x="15" y="15" width="1" height="1" fill="#F1FBEC" />
<rect x="16" y="15" width="1" height="1" fill="#F1FBEC" />
<rect x="17" y="15" width="1" height="1" fill="#FFDDB7" />
<rect x="18" y="15" width="1" height="1" fill="#221F40" />
<rect x="10" y="16" width="1" height="1" fill="#221F40" />
<rect x="11" y="16" width="1" height="1" fill="#F1FBEC" />
<rect x="12" y="16" width="1" height="1" fill="#F1FBEC" />
<rect x="13" y="16" width="1" height="1" fill="#F1FBEC" />
<rect x="14" y="16" width="1" height="1" fill="#F1FBEC" />
<rect x="15" y="16" width="1" height="1" fill="#F1FBEC" />
<rect x="16" y="16" width="1" height="1" fill="#221F40" />
<rect x="17" y="16" width="1" height="1" fill="#F1FBEC" />
<rect x="18" y="16" width="1" height="1" fill="#221F40" />
<rect x="10" y="17" width="1" height="1" fill="#221F40" />
<rect x="11" y="17" width="1" height="1" fill="#F1FBEC" />
<rect x="12" y="17" width="1" height="1" fill="#F1FBEC" />
<rect x="13" y="17" width="1" height="1" fill="#F1FBEC" />
<rect x="14" y="17" width="1" height="1" fill="#F1FBEC" />
<rect x="15" y="17" width="1" height="1" fill="#F1FBEC" />
<rect x="16" y="17" width="1" height="1" fill="#F1FBEC" />
<rect x="17" y="17" width="1" height="1" fill="#221F40" />
<rect x="11" y="18" width="1" height="1" fill="#221F40" />
<rect x="12" y="18" width="1" height="1" fill="#F1FBEC" />
<rect x="13" y="18" width="1" height="1" fill="#F1FBEC" />
<rect x="14" y="18" width="1" height="1" fill="#F1FBEC" />
<rect x="15" y="18" width="1" height="1" fill="#FFDDB7" />
<rect x="16" y="18" width="1" height="1" fill="#221F40" />
</svg>