<?xml version="1.0" encoding="UTF-8" ?>
<svg version="1.1" width="32" height="32" xmlns="http://www.w3.org/2000/svg" shape-rendering="crispEdges">
<rect x="24" y="7" width="1" height="1" fill="#221F40" />
<rect x="23" y="8" width="1" height="1" fill="#221F40" />
<rect x="25" y="8" width="1" height="1" fill="#221F40" />
<rect x="2" y="9" width="1" height="1" fill="#221F40" />
<rect x="22" y="9" width="1" height="1" fill="#221F40" />
<rect x="26" y="9" width="1" height="1" fill="#221F40" />
<rect x="27" y="9" width="1" height="1" fill="#221F40" />
<rect x="3" y="10" width="1" height="1" fill="#221F40" />
<rect x="20" y="10" width="1" height="1" fill="#221F40" />
<rect x="21" y="10" width="1" height="1" fill="#221F40" />
<rect x="28" y="10" width="1" height="1" fill="#221F40" />
<rect x="29" y="10" width="1" height="1" fill="#221F40" />
<rect x="30" y="10" width="1" height="1" fill="#221F40" />
<rect x="4" y="11" width="1" height="1" fill="#221F40" />
<rect x="5" y="11" width="1" height="1" fill="#221F40" />
<rect x="18" y="11" width="1" height="1" fill="#221F40" />
<rect x="19" y="11" width="1" height="1" fill="#221F40" />
<rect x="31" y="11" width="1" height="1" fill="#221F40" />
<rect x="6" y="12" width="1" height="1" fill="#221F40" />
<rect x="7" y="12" width="1" height="1" fill="#221F40" />
<rect x="11" y="12" width="1" height="1" fill="#2C3B4F" />
<rect x="14" y="12" width="1" height="1" fill="#221F40" />
<rect x="15" y="12" width="1" height="1" fill="#221F40" />
<rect x="16" y="12" width="1" height="1" fill="#221F40" />
<rect x="17" y="12" width="1" height="1" fill="#221F40" />
<rect x="8" y="13" width="1" height="1" fill="#221F40" />
<rect x="9" y="13" width="1" height="1" fill="#221F40" />
<rect x="10" y="13" width="1" height="1" fill="#2C3B4F" />
<rect x="11" y="13" width="1" height="1" fill="#2C3B4F" />
<rect x="12" y="13" width="1" height="1" fill="#221F40" />
<rect x="13" y="13" width="1" height="1" fill="#221F40" />
<rect x="29" y="13" width="1" height="1" fill="#DBE7EA" />
<rect x="30" y="13" width="1" height="1" fill="#F1FBEC" />
<rect x="31" y="13" width="1" height="1" fill="#F1FBEC" />
<rect x="10" y="14" width="1" height="1" fill="#2C3B4F" />
<rect x="11" y="14" width="1" height="1" fill="#2C3B4F" />
<rect x="29" y="14" width="1" height="1" fill="#DBE7EA" />
<rect x="30" y="14" width="1" height="1" fill="#221F40" />
<rect x="31" y="14" width="1" height="1" fill="#FBBF48" />
<rect x="6" y="15" width="1" height="1" fill="#DBE7EA" />
<rect x="7" y="15" width="1" height="1" fill="#F1FBEC" />
<rect x="8" y="15" width="1" height="1" fill="#F1FBEC" />
<rect x="9" y="15" width="1" height="1" fill="#F1FBEC" />
<rect x="10" y="15" width="1" height="1" fill="#2C3B4F" />
<rect x="11" y="15" width="1" height="1" fill="#F1FBEC" />
<rect x="12" y="15" width="1" height="1" fill="#F1FBEC" />
<rect x="13" y="15" width="1" height="1" fill="#F1FBEC" />
<rect x="14" y="15" width="1" height="1" fill="#DBE7EA" />
<rect x="29" y="15" width="1" height="1" fill="#F1FBEC" />
<rect x="30" y="15" width="1" height="1" fill="#DF49E5" />
<rect x="31" y="15" width="1" height="1" fill="#DF49E5" />
<rect x="6" y="16" width="1" height="1" fill="#DBE7EA" />
<rect x="7" y="16" width="1" height="1" fill="#221F40" />
<rect x="8" y="16" width="1" height="1" fill="#FFABB2" />
<rect x="9" y="16" width="1" height="1" fill="#FFABB2" />
<rect x="10" y="16" width="1" height="1" fill="#221F40" />
<rect x="11" y="16" width="1" height="1" fill="#221F40" />
<rect x="12" y="16" width="1" height="1" fill="#332C71" />
<rect x="13" y="16" width="1" height="1" fill="#221F40" />
<rect x="14" y="16" width="1" height="1" fill="#DBE7EA" />
<rect x="29" y="16" width="1" height="1" fill="#F1FBEC" />
<rect x="30" y="16" width="1" height="1" fill="#DF49E5" />
<rect x="31" y="16" width="1" height="1" fill="#DF49E5" />
<rect x="6" y="17" width="1" height="1" fill="#F1FBEC" />
<rect x="7" y="17" width="1" height="1" fill="#FF7DA3" />
<rect x="8" y="17" width="1" height="1" fill="#FFABB2" />
<rect x="9" y="17" width="1" height="1" fill="#FFABB2" />
<rect x="10" y="17" width="1" height="1" fill="#FF7DA3" />
<rect x="11" y="17" width="1" height="1" fill="#221F40" />
<rect x="12" y="17" width="1" height="1" fill="#332C71" />
<rect x="13" y="17" width="1" height="1" fill="#221F40" />
<rect x="14" y="17" width="1" height="1" fill="#F1FBEC" />
<rect x="29" y="17" width="1" height="1" fill="#F1FBEC" />
<rect x="30" y="17" width="1" height="1" fill="#332C71" />
<rect x="31" y="17" width="1" height="1" fill="#332C71" />
<rect x="6" y="18" width="1" height="1" fill="#F1FBEC" />
<rect x="7" y="18" width="1" height="1" fill="#FF7DA3" />
<rect x="8" y="18" width="1" height="1" fill="#FF7DA3" />
<rect x="9" y="18" width="1" height="1" fill="#FF478C" />
<rect x="10" y="18" width="1" height="1" fill="#FF7DA3" />
<rect x="11" y="18" width="1" height="1" fill="#FF478C" />
<rect x="12" y="18" width="1" height="1" fill="#332C71" />
<rect x="13" y="18" width="1" height="1" fill="#332C71" />
<rect x="14" y="18" width="1" height="1" fill="#F1FBEC" />
<rect x="29" y="18" width="1" height="1" fill="#F1FBEC" />
<rect x="30" y="18" width="1" height="1" fill="#332C71" />
<rect x="31" y="18" width="1" height="1" fill="#3D6BF4" />
<rect x="6" y="19" width="1" height="1" fill="#F1FBEC" />
<rect x="7" y="19" width="1" height="1" fill="#221F40" />
<rect x="8" y="19" width="1" height="1" fill="#FF478C" />
<rect x="9" y="19" width="1" height="1" fill="#FF478C" />
<rect x="10" y="19" width="1" height="1" fill="#781546" />
<rect x="11" y="19" width="1" height="1" fill="#DBE7EA" />
<rect x="12" y="19" width="1" height="1" fill="#DBE7EA" />
<rect x="13" y="19" width="1" height="1" fill="#221F40" />
<rect x="14" y="19" width="1" height="1" fill="#F1FBEC" />
<rect x="29" y="19" width="1" height="1" fill="#F1FBEC" />
<rect x="30" y="19" width="1" height="1" fill="#FF478C" />
<rect x="31" y="19" width="1" height="1" fill="#FF478C" />
<rect x="6" y="20" width="1" height="1" fill="#F1FBEC" />
<rect x="7" y="20" width="1" height="1" fill="#332C71" />
<rect x="8" y="20" width="1" height="1" fill="#332C71" />
<rect x="9" y="20" width="1" height="1" fill="#FF478C" />
<rect x="10" y="20" width="1" height="1" fill="#DBE7EA" />
<rect x="11" y="20" width="1" height="1" fill="#DBE7EA" />
<rect x="12" y="20" width="1" height="1" fill="#DBE7EA" />
<rect x="13" y="20" width="1" height="1" fill="#DBE7EA" />
<rect x="14" y="20" width="1" height="1" fill="#F1FBEC" />
<rect x="29" y="20" width="1" height="1" fill="#F1FBEC" />
<rect x="30" y="20" width="1" height="1" fill="#F1FBEC" />
<rect x="31" y="20" width="1" height="1" fill="#F1FBEC" />
<rect x="6" y="21" width="1" height="1" fill="#F1FBEC" />
<rect x="7" y="21" width="1" height="1" fill="#221F40" />
<rect x="8" y="21" width="1" height="1" fill="#332C71" />
<rect x="9" y="21" width="1" height="1" fill="#221F40" />
<rect x="10" y="21" width="1" height="1" fill="#DBE7EA" />
<rect x="11" y="21" width="1" height="1" fill="#DBE7EA" />
<rect x="12" y="21" width="1" height="1" fill="#AFC1D6" />
<rect x="13" y="21" width="1" height="1" fill="#DBE7EA" />
<rect x="14" y="21" width="1" height="1" fill="#F1FBEC" />
<rect x="29" y="21" width="1" height="1" fill="#DBE7EA" />
<rect x="30" y="21" width="1" height="1" fill="#F1FBEC" />
<rect x="31" y="21" width="1" height="1" fill="#F1FBEC" />
<rect x="6" y="22" width="1" height="1" fill="#F1FBEC" />
<rect x="7" y="22" width="1" height="1" fill="#F1FBEC" />
<rect x="8" y="22" width="1" height="1" fill="#F1FBEC" />
<rect x="9" y="22" width="1" height="1" fill="#F1FBEC" />
<rect x="10" y="22" width="1" height="1" fill="#F1FBEC" />
<rect x="11" y="22" width="1" height="1" fill="#F1FBEC" />
<rect x="12" y="22" width="1" height="1" fill="#F1FBEC" />
<rect x="13" y="22" width="1" height="1" fill="#F1FBEC" />
<rect x="14" y="22" width="1" height="1" fill="#F1FBEC" />
<rect x="6" y="23" width="1" height="1" fill="#DBE7EA" />
<rect x="7" y="23" width="1" height="1" fill="#F1FBEC" />
<rect x="8" y="23" width="1" height="1" fill="#F1FBEC" />
<rect x="9" y="23" width="1" height="1" fill="#F1FBEC" />
<rect x="10" y="23" width="1" height="1" fill="#F1FBEC" />
<rect x="11" y="23" width="1" height="1" fill="#F1FBEC" />
<rect x="12" y="23" width="1" height="1" fill="#F1FBEC" />
<rect x="13" y="23" width="1" height="1" fill="#F1FBEC" />
<rect x="14" y="23" width="1" height="1" fill="#DBE7EA" />
</svg>