<?xml version="1.0" encoding="UTF-8" ?>
<svg version="1.1" width="32" height="32" xmlns="http://www.w3.org/2000/svg" shape-rendering="crispEdges">
<rect x="29" y="5" width="1" height="1" fill="#781546" />
<rect x="30" y="5" width="1" height="1" fill="#781546" />
<rect x="31" y="5" width="1" height="1" fill="#781546" />
<rect x="26" y="6" width="1" height="1" fill="#781546" />
<rect x="27" y="6" width="1" height="1" fill="#781546" />
<rect x="28" y="6" width="1" height="1" fill="#FFEEDD" />
<rect x="29" y="6" width="1" height="1" fill="#FFEEDD" />
<rect x="30" y="6" width="1" height="1" fill="#F1FBEC" />
<rect x="31" y="6" width="1" height="1" fill="#F1FBEC" />
<rect x="24" y="7" width="1" height="1" fill="#781546" />
<rect x="25" y="7" width="1" height="1" fill="#FFEEDD" />
<rect x="26" y="7" width="1" height="1" fill="#F1FBEC" />
<rect x="27" y="7" width="1" height="1" fill="#F1FBEC" />
<rect x="28" y="7" width="1" height="1" fill="#F1FBEC" />
<rect x="29" y="7" width="1" height="1" fill="#F1FBEC" />
<rect x="30" y="7" width="1" height="1" fill="#F1FBEC" />
<rect x="31" y="7" width="1" height="1" fill="#F1FBEC" />
<rect x="23" y="8" width="1" height="1" fill="#781546" />
<rect x="24" y="8" width="1" height="1" fill="#FFEEDD" />
<rect x="25" y="8" width="1" height="1" fill="#F1FBEC" />
<rect x="26" y="8" width="1" height="1" fill="#F1FBEC" />
<rect x="27" y="8" width="1" height="1" fill="#F1FBEC" />
<rect x="28" y="8" width="1" height="1" fill="#F1FBEC" />
<rect x="29" y="8" width="1" height="1" fill="#F1FBEC" />
<rect x="30" y="8" width="1" height="1" fill="#F1FBEC" />
<rect x="31" y="8" width="1" height="1" fill="#F1FBEC" />
<rect x="22" y="9" width="1" height="1" fill="#781546" />
<rect x="23" y="9" width="1" height="1" fill="#F1FBEC" />
<rect x="24" y="9" width="1" height="1" fill="#F1FBEC" />
<rect x="25" y="9" width="1" height="1" fill="#F1FBEC" />
<rect x="26" y="9" width="1" height="1" fill="#F1FBEC" />
<rect x="27" y="9" width="1" height="1" fill="#F1FBEC" />
<rect x="28" y="9" width="1" height="1" fill="#F1FBEC" />
<rect x="29" y="9" width="1" height="1" fill="#F1FBEC" />
<rect x="30" y="9" width="1" height="1" fill="#F1FBEC" />
<rect x="31" y="9" width="1" height="1" fill="#F1FBEC" />
<rect x="21" y="10" width="1" height="1" fill="#781546" />
<rect x="22" y="10" width="1" height="1" fill="#FFEEDD" />
<rect x="23" y="10" width="1" height="1" fill="#F1FBEC" />
<rect x="24" y="10" width="1" height="1" fill="#F1FBEC" />
<rect x="25" y="10" width="1" height="1" fill="#F1FBEC" />
<rect x="26" y="10" width="1" height="1" fill="#F1FBEC" />
<rect x="27" y="10" width="1" height="1" fill="#F1FBEC" />
<rect x="28" y="10" width="1" height="1" fill="#F1FBEC" />
<rect x="29" y="10" width="1" height="1" fill="#FF7DA3" />
<rect x="30" y="10" width="1" height="1" fill="#FF7DA3" />
<rect x="31" y="10" width="1" height="1" fill="#F1FBEC" />
<rect x="21" y="11" width="1" height="1" fill="#781546" />
<rect x="22" y="11" width="1" height="1" fill="#FFEEDD" />
<rect x="23" y="11" width="1" height="1" fill="#FFEEDD" />
<rect x="24" y="11" width="1" height="1" fill="#F1FBEC" />
<rect x="25" y="11" width="1" height="1" fill="#F1FBEC" />
<rect x="26" y="11" width="1" height="1" fill="#F1FBEC" />
<rect x="27" y="11" width="1" height="1" fill="#F1FBEC" />
<rect x="28" y="11" width="1" height="1" fill="#FFD0C9" />
<rect x="29" y="11" width="1" height="1" fill="#FF7DA3" />
<rect x="30" y="11" width="1" height="1" fill="#FF7DA3" />
<rect x="31" y="11" width="1" height="1" fill="#FFD0C9" />
<rect x="21" y="12" width="1" height="1" fill="#781546" />
<rect x="22" y="12" width="1" height="1" fill="#FFEEDD" />
<rect x="23" y="12" width="1" height="1" fill="#FFDDB7" />
<rect x="24" y="12" width="1" height="1" fill="#F1FBEC" />
<rect x="25" y="12" width="1" height="1" fill="#F1FBEC" />
<rect x="26" y="12" width="1" height="1" fill="#F1FBEC" />
<rect x="27" y="12" width="1" height="1" fill="#F1FBEC" />
<rect x="28" y="12" width="1" height="1" fill="#F1FBEC" />
<rect x="29" y="12" width="1" height="1" fill="#F1FBEC" />
<rect x="30" y="12" width="1" height="1" fill="#F1FBEC" />
<rect x="31" y="12" width="1" height="1" fill="#F1FBEC" />
<rect x="21" y="13" width="1" height="1" fill="#781546" />
<rect x="22" y="13" width="1" height="1" fill="#FFEEDD" />
<rect x="23" y="13" width="1" height="1" fill="#FFDDB7" />
<rect x="24" y="13" width="1" height="1" fill="#FFDDB7" />
<rect x="25" y="13" width="1" height="1" fill="#FFEEDD" />
<rect x="26" y="13" width="1" height="1" fill="#F1FBEC" />
<rect x="27" y="13" width="1" height="1" fill="#F1FBEC" />
<rect x="28" y="13" width="1" height="1" fill="#F1FBEC" />
<rect x="29" y="13" width="1" height="1" fill="#F1FBEC" />
<rect x="30" y="13" width="1" height="1" fill="#F1FBEC" />
<rect x="31" y="13" width="1" height="1" fill="#F1FBEC" />
<rect x="21" y="14" width="1" height="1" fill="#781546" />
<rect x="22" y="14" width="1" height="1" fill="#FFDDB7" />
<rect x="23" y="14" width="1" height="1" fill="#FFDDB7" />
<rect x="24" y="14" width="1" height="1" fill="#FFDDB7" />
<rect x="25" y="14" width="1" height="1" fill="#FFDDB7" />
<rect x="26" y="14" width="1" height="1" fill="#FFDDB7" />
<rect x="27" y="14" width="1" height="1" fill="#FFDDB7" />
<rect x="28" y="14" width="1" height="1" fill="#FFEEDD" />
<rect x="29" y="14" width="1" height="1" fill="#FFEEDD" />
<rect x="30" y="14" width="1" height="1" fill="#F1FBEC" />
<rect x="31" y="14" width="1" height="1" fill="#F1FBEC" />
<rect x="21" y="15" width="1" height="1" fill="#781546" />
<rect x="22" y="15" width="1" height="1" fill="#FFDDB7" />
<rect x="23" y="15" width="1" height="1" fill="#FFDDB7" />
<rect x="24" y="15" width="1" height="1" fill="#FFDDB7" />
<rect x="25" y="15" width="1" height="1" fill="#FFDDB7" />
<rect x="26" y="15" width="1" height="1" fill="#FFDDB7" />
<rect x="27" y="15" width="1" height="1" fill="#FFDDB7" />
<rect x="28" y="15" width="1" height="1" fill="#FFDDB7" />
<rect x="29" y="15" width="1" height="1" fill="#FFDDB7" />
<rect x="30" y="15" width="1" height="1" fill="#FFDDB7" />
<rect x="31" y="15" width="1" height="1" fill="#FFDDB7" />
<rect x="22" y="16" width="1" height="1" fill="#781546" />
<rect x="23" y="16" width="1" height="1" fill="#FFDDB7" />
<rect x="24" y="16" width="1" height="1" fill="#FFDDB7" />
<rect x="25" y="16" width="1" height="1" fill="#781546" />
<rect x="26" y="16" width="1" height="1" fill="#FFDDB7" />
<rect x="27" y="16" width="1" height="1" fill="#FFDDB7" />
<rect x="28" y="16" width="1" height="1" fill="#FFDDB7" />
<rect x="29" y="16" width="1" height="1" fill="#FFDDB7" />
<rect x="30" y="16" width="1" height="1" fill="#FFDDB7" />
<rect x="31" y="16" width="1" height="1" fill="#FFDDB7" />
<rect x="23" y="17" width="1" height="1" fill="#781546" />
<rect x="24" y="17" width="1" height="1" fill="#781546" />
<rect x="25" y="17" width="1" height="1" fill="#781546" />
<rect x="26" y="17" width="1" height="1" fill="#FFDDB7" />
<rect x="27" y="17" width="1" height="1" fill="#FFDDB7" />
<rect x="28" y="17" width="1" height="1" fill="#FFDDB7" />
<rect x="29" y="17" width="1" height="1" fill="#FFDDB7" />
<rect x="30" y="17" width="1" height="1" fill="#FFDDB7" />
<rect x="31" y="17" width="1" height="1" fill="#FFDDB7" />
<rect x="22" y="18" width="1" height="1" fill="#46556D" />
<rect x="23" y="18" width="1" height="1" fill="#781546" />
<rect x="24" y="18" width="1" height="1" fill="#781546" />
<rect x="25" y="18" width="1" height="1" fill="#A1485A" />
<rect x="26" y="18" width="1" height="1" fill="#A1485A" />
<rect x="27" y="18" width="1" height="1" fill="#781546" />
<rect x="28" y="18" width="1" height="1" fill="#FFDDB7" />
<rect x="29" y="18" width="1" height="1" fill="#FFDDB7" />
<rect x="30" y="18" width="1" height="1" fill="#FFDDB7" />
<rect x="31" y="18" width="1" height="1" fill="#A1485A" />
<rect x="21" y="19" width="1" height="1" fill="#46556D" />
<rect x="22" y="19" width="1" height="1" fill="#6F8392" />
<rect x="23" y="19" width="1" height="1" fill="#781546" />
<rect x="24" y="19" width="1" height="1" fill="#781546" />
<rect x="25" y="19" width="1" height="1" fill="#781546" />
<rect x="26" y="19" width="1" height="1" fill="#A1485A" />
<rect x="27" y="19" width="1" height="1" fill="#A1485A" />
<rect x="28" y="19" width="1" height="1" fill="#A1485A" />
<rect x="29" y="19" width="1" height="1" fill="#A1485A" />
<rect x="30" y="19" width="1" height="1" fill="#A1485A" />
<rect x="31" y="19" width="1" height="1" fill="#A1485A" />
<rect x="20" y="20" width="1" height="1" fill="#46556D" />
<rect x="21" y="20" width="1" height="1" fill="#6F8392" />
<rect x="22" y="20" width="1" height="1" fill="#6F8392" />
<rect x="23" y="20" width="1" height="1" fill="#46556D" />
<rect x="24" y="20" width="1" height="1" fill="#781546" />
<rect x="25" y="20" width="1" height="1" fill="#781546" />
<rect x="26" y="20" width="1" height="1" fill="#781546" />
<rect x="27" y="20" width="1" height="1" fill="#A1485A" />
<rect x="28" y="20" width="1" height="1" fill="#A1485A" />
<rect x="29" y="20" width="1" height="1" fill="#A1485A" />
<rect x="30" y="20" width="1" height="1" fill="#A1485A" />
<rect x="31" y="20" width="1" height="1" fill="#A1485A" />
<rect x="20" y="21" width="1" height="1" fill="#46556D" />
<rect x="21" y="21" width="1" height="1" fill="#6F8392" />
<rect x="22" y="21" width="1" height="1" fill="#6F8392" />
<rect x="23" y="21" width="1" height="1" fill="#46556D" />
<rect x="24" y="21" width="1" height="1" fill="#781546" />
<rect x="25" y="21" width="1" height="1" fill="#A1485A" />
<rect x="26" y="21" width="1" height="1" fill="#A1485A" />
<rect x="27" y="21" width="1" height="1" fill="#A1485A" />
<rect x="28" y="21" width="1" height="1" fill="#781546" />
<rect x="29" y="21" width="1" height="1" fill="#781546" />
<rect x="30" y="21" width="1" height="1" fill="#781546" />
<rect x="31" y="21" width="1" height="1" fill="#781546" />
<rect x="20" y="22" width="1" height="1" fill="#46556D" />
<rect x="21" y="22" width="1" height="1" fill="#6F8392" />
<rect x="22" y="22" width="1" height="1" fill="#6F8392" />
<rect x="23" y="22" width="1" height="1" fill="#6F8392" />
<rect x="24" y="22" width="1" height="1" fill="#781546" />
<rect x="25" y="22" width="1" height="1" fill="#781546" />
<rect x="26" y="22" width="1" height="1" fill="#A1485A" />
<rect x="27" y="22" width="1" height="1" fill="#A1485A" />
<rect x="28" y="22" width="1" height="1" fill="#A1485A" />
<rect x="29" y="22" width="1" height="1" fill="#A1485A" />
<rect x="30" y="22" width="1" height="1" fill="#781546" />
<rect x="31" y="22" width="1" height="1" fill="#A1485A" />
<rect x="21" y="23" width="1" height="1" fill="#6F8392" />
<rect x="22" y="23" width="1" height="1" fill="#6F8392" />
<rect x="23" y="23" width="1" height="1" fill="#6F8392" />
<rect x="24" y="23" width="1" height="1" fill="#6F8392" />
<rect x="25" y="23" width="1" height="1" fill="#781546" />
<rect x="26" y="23" width="1" height="1" fill="#781546" />
<rect x="27" y="23" width="1" height="1" fill="#A1485A" />
<rect x="28" y="23" width="1" height="1" fill="#A1485A" />
<rect x="29" y="23" width="1" height="1" fill="#A1485A" />
<rect x="30" y="23" width="1" height="1" fill="#A1485A" />
<rect x="31" y="23" width="1" height="1" fill="#A1485A" />
<rect x="22" y="24" width="1" height="1" fill="#6F8392" />
<rect x="23" y="24" width="1" height="1" fill="#6F8392" />
<rect x="24" y="24" width="1" height="1" fill="#6F8392" />
<rect x="25" y="24" width="1" height="1" fill="#6F8392" />
<rect x="26" y="24" width="1" height="1" fill="#46556D" />
<rect x="27" y="24" width="1" height="1" fill="#46556D" />
<rect x="28" y="24" width="1" height="1" fill="#781546" />
<rect x="29" y="24" width="1" height="1" fill="#781546" />
<rect x="30" y="24" width="1" height="1" fill="#A1485A" />
<rect x="31" y="24" width="1" height="1" fill="#A1485A" />
<rect x="23" y="25" width="1" height="1" fill="#46556D" />
<rect x="24" y="25" width="1" height="1" fill="#6F8392" />
<rect x="25" y="25" width="1" height="1" fill="#6F8392" />
<rect x="26" y="25" width="1" height="1" fill="#6F8392" />
<rect x="27" y="25" width="1" height="1" fill="#6F8392" />
<rect x="28" y="25" width="1" height="1" fill="#6F8392" />
<rect x="29" y="25" width="1" height="1" fill="#6F8392" />
<rect x="30" y="25" width="1" height="1" fill="#6F8392" />
<rect x="31" y="25" width="1" height="1" fill="#6F8392" />
<rect x="25" y="26" width="1" height="1" fill="#46556D" />
<rect x="26" y="26" width="1" height="1" fill="#46556D" />
<rect x="27" y="26" width="1" height="1" fill="#6F8392" />
<rect x="28" y="26" width="1" height="1" fill="#6F8392" />
<rect x="29" y="26" width="1" height="1" fill="#6F8392" />
<rect x="30" y="26" width="1" height="1" fill="#6F8392" />
<rect x="31" y="26" width="1" height="1" fill="#6F8392" />
<rect x="28" y="27" width="1" height="1" fill="#46556D" />
<rect x="29" y="27" width="1" height="1" fill="#46556D" />
<rect x="30" y="27" width="1" height="1" fill="#46556D" />
<rect x="31" y="27" width="1" height="1" fill="#46556D" />
</svg>