<?xml version="1.0" encoding="UTF-8" ?>
<svg version="1.1" width="32" height="32" xmlns="http://www.w3.org/2000/svg" shape-rendering="crispEdges">
<rect x="11" y="10" width="1" height="1" fill="#221F40" />
<rect x="12" y="10" width="1" height="1" fill="#221F40" />
<rect x="14" y="10" width="1" height="1" fill="#221F40" />
<rect x="15" y="10" width="1" height="1" fill="#221F40" />
<rect x="16" y="10" width="1" height="1" fill="#221F40" />
<rect x="19" y="10" width="1" height="1" fill="#221F40" />
<rect x="20" y="10" width="1" height="1" fill="#221F40" />
<rect x="21" y="10" width="1" height="1" fill="#221F40" />
<rect x="11" y="11" width="1" height="1" fill="#221F40" />
<rect x="12" y="11" width="1" height="1" fill="#A5026E" />
<rect x="13" y="11" width="1" height="1" fill="#221F40" />
<rect x="14" y="11" width="1" height="1" fill="#221F40" />
<rect x="15" y="11" width="1" height="1" fill="#F1FBEC" />
<rect x="16" y="11" width="1" height="1" fill="#F1FBEC" />
<rect x="17" y="11" width="1" height="1" fill="#221F40" />
<rect x="18" y="11" width="1" height="1" fill="#221F40" />
<rect x="19" y="11" width="1" height="1" fill="#221F40" />
<rect x="20" y="11" width="1" height="1" fill="#A5026E" />
<rect x="21" y="11" width="1" height="1" fill="#221F40" />
<rect x="11" y="12" width="1" height="1" fill="#221F40" />
<rect x="12" y="12" width="1" height="1" fill="#A5026E" />
<rect x="13" y="12" width="1" height="1" fill="#F1FBEC" />
<rect x="14" y="12" width="1" height="1" fill="#F1FBEC" />
<rect x="15" y="12" width="1" height="1" fill="#F1FBEC" />
<rect x="16" y="12" width="1" height="1" fill="#DBE7EA" />
<rect x="17" y="12" width="1" height="1" fill="#DBE7EA" />
<rect x="18" y="12" width="1" height="1" fill="#F1FBEC" />
<rect x="19" y="12" width="1" height="1" fill="#F1FBEC" />
<rect x="20" y="12" width="1" height="1" fill="#A5026E" />
<rect x="21" y="12" width="1" height="1" fill="#221F40" />
<rect x="11" y="13" width="1" height="1" fill="#221F40" />
<rect x="12" y="13" width="1" height="1" fill="#F1FBEC" />
<rect x="13" y="13" width="1" height="1" fill="#F1FBEC" />
<rect x="14" y="13" width="1" height="1" fill="#F1FBEC" />
<rect x="15" y="13" width="1" height="1" fill="#F1FBEC" />
<rect x="16" y="13" width="1" height="1" fill="#F1FBEC" />
<rect x="17" y="13" width="1" height="1" fill="#F1FBEC" />
<rect x="18" y="13" width="1" height="1" fill="#F1FBEC" />
<rect x="19" y="13" width="1" height="1" fill="#F1FBEC" />
<rect x="20" y="13" width="1" height="1" fill="#221F40" />
<rect x="21" y="13" width="1" height="1" fill="#221F40" />
<rect x="11" y="14" width="1" height="1" fill="#221F40" />
<rect x="12" y="14" width="1" height="1" fill="#F1FBEC" />
<rect x="13" y="14" width="1" height="1" fill="#F1FBEC" />
<rect x="14" y="14" width="1" height="1" fill="#F1FBEC" />
<rect x="15" y="14" width="1" height="1" fill="#F1FBEC" />
<rect x="16" y="14" width="1" height="1" fill="#F1FBEC" />
<rect x="17" y="14" width="1" height="1" fill="#F1FBEC" />
<rect x="18" y="14" width="1" height="1" fill="#F1FBEC" />
<rect x="19" y="14" width="1" height="1" fill="#F1FBEC" />
<rect x="20" y="14" width="1" height="1" fill="#F1FBEC" />
<rect x="21" y="14" width="1" height="1" fill="#221F40" />
<rect x="10" y="15" width="1" height="1" fill="#221F40" />
<rect x="11" y="15" width="1" height="1" fill="#F1FBEC" />
<rect x="12" y="15" width="1" height="1" fill="#F1FBEC" />
<rect x="13" y="15" width="1" height="1" fill="#F1FBEC" />
<rect x="14" y="15" width="1" height="1" fill="#F1FBEC" />
<rect x="15" y="15" width="1" height="1" fill="#F1FBEC" />
<rect x="16" y="15" width="1" height="1" fill="#F1FBEC" />
<rect x="17" y="15" width="1" height="1" fill="#F1FBEC" />
<rect x="18" y="15" width="1" height="1" fill="#F1FBEC" />
<rect x="19" y="15" width="1" height="1" fill="#F1FBEC" />
<rect x="20" y="15" width="1" height="1" fill="#F1FBEC" />
<rect x="21" y="15" width="1" height="1" fill="#F1FBEC" />
<rect x="22" y="15" width="1" height="1" fill="#221F40" />
<rect x="9" y="16" width="1" height="1" fill="#221F40" />
<rect x="10" y="16" width="1" height="1" fill="#F1FBEC" />
<rect x="11" y="16" width="1" height="1" fill="#F1FBEC" />
<rect x="12" y="16" width="1" height="1" fill="#F1FBEC" />
<rect x="13" y="16" width="1" height="1" fill="#DBE7EA" />
<rect x="14" y="16" width="1" height="1" fill="#F1FBEC" />
<rect x="15" y="16" width="1" height="1" fill="#F1FBEC" />
<rect x="16" y="16" width="1" height="1" fill="#F1FBEC" />
<rect x="17" y="16" width="1" height="1" fill="#F1FBEC" />
<rect x="18" y="16" width="1" height="1" fill="#F1FBEC" />
<rect x="19" y="16" width="1" height="1" fill="#DBE7EA" />
<rect x="20" y="16" width="1" height="1" fill="#F1FBEC" />
<rect x="21" y="16" width="1" height="1" fill="#F1FBEC" />
<rect x="22" y="16" width="1" height="1" fill="#F1FBEC" />
<rect x="23" y="16" width="1" height="1" fill="#221F40" />
<rect x="9" y="17" width="1" height="1" fill="#221F40" />
<rect x="10" y="17" width="1" height="1" fill="#F1FBEC" />
<rect x="11" y="17" width="1" height="1" fill="#F1FBEC" />
<rect x="12" y="17" width="1" height="1" fill="#F1FBEC" />
<rect x="13" y="17" width="1" height="1" fill="#DBE7EA" />
<rect x="14" y="17" width="1" height="1" fill="#A5026E" />
<rect x="15" y="17" width="1" height="1" fill="#FF478C" />
<rect x="16" y="17" width="1" height="1" fill="#FF478C" />
<rect x="17" y="17" width="1" height="1" fill="#FF478C" />
<rect x="18" y="17" width="1" height="1" fill="#A5026E" />
<rect x="19" y="17" width="1" height="1" fill="#DBE7EA" />
<rect x="20" y="17" width="1" height="1" fill="#F1FBEC" />
<rect x="21" y="17" width="1" height="1" fill="#F1FBEC" />
<rect x="22" y="17" width="1" height="1" fill="#F1FBEC" />
<rect x="23" y="17" width="1" height="1" fill="#221F40" />
<rect x="10" y="18" width="1" height="1" fill="#221F40" />
<rect x="11" y="18" width="1" height="1" fill="#F1FBEC" />
<rect x="12" y="18" width="1" height="1" fill="#F1FBEC" />
<rect x="13" y="18" width="1" height="1" fill="#A5026E" />
<rect x="14" y="18" width="1" height="1" fill="#FF478C" />
<rect x="15" y="18" width="1" height="1" fill="#FF478C" />
<rect x="16" y="18" width="1" height="1" fill="#FF478C" />
<rect x="17" y="18" width="1" height="1" fill="#FF478C" />
<rect x="18" y="18" width="1" height="1" fill="#FF478C" />
<rect x="19" y="18" width="1" height="1" fill="#A5026E" />
<rect x="20" y="18" width="1" height="1" fill="#F1FBEC" />
<rect x="21" y="18" width="1" height="1" fill="#F1FBEC" />
<rect x="22" y="18" width="1" height="1" fill="#221F40" />
<rect x="11" y="19" width="1" height="1" fill="#221F40" />
<rect x="12" y="19" width="1" height="1" fill="#332C71" />
<rect x="13" y="19" width="1" height="1" fill="#A5026E" />
<rect x="14" y="19" width="1" height="1" fill="#A5026E" />
<rect x="15" y="19" width="1" height="1" fill="#2B9A84" />
<rect x="16" y="19" width="1" height="1" fill="#2B9A84" />
<rect x="17" y="19" width="1" height="1" fill="#2B9A84" />
<rect x="18" y="19" width="1" height="1" fill="#A5026E" />
<rect x="19" y="19" width="1" height="1" fill="#A5026E" />
<rect x="20" y="19" width="1" height="1" fill="#332C71" />
<rect x="21" y="19" width="1" height="1" fill="#221F40" />
<rect x="11" y="20" width="1" height="1" fill="#221F40" />
<rect x="12" y="20" width="1" height="1" fill="#A5026E" />
<rect x="13" y="20" width="1" height="1" fill="#A5026E" />
<rect x="14" y="20" width="1" height="1" fill="#A5026E" />
<rect x="15" y="20" width="1" height="1" fill="#2B9A84" />
<rect x="16" y="20" width="1" height="1" fill="#2B9A84" />
<rect x="17" y="20" width="1" height="1" fill="#2B9A84" />
<rect x="18" y="20" width="1" height="1" fill="#A5026E" />
<rect x="19" y="20" width="1" height="1" fill="#A5026E" />
<rect x="20" y="20" width="1" height="1" fill="#A5026E" />
<rect x="21" y="20" width="1" height="1" fill="#221F40" />
<rect x="10" y="21" width="1" height="1" fill="#221F40" />
<rect x="11" y="21" width="1" height="1" fill="#A5026E" />
<rect x="12" y="21" width="1" height="1" fill="#A5026E" />
<rect x="13" y="21" width="1" height="1" fill="#A5026E" />
<rect x="14" y="21" width="1" height="1" fill="#53CB7B" />
<rect x="15" y="21" width="1" height="1" fill="#53CB7B" />
<rect x="16" y="21" width="1" height="1" fill="#53CB7B" />
<rect x="17" y="21" width="1" height="1" fill="#2B9A84" />
<rect x="18" y="21" width="1" height="1" fill="#53CB7B" />
<rect x="19" y="21" width="1" height="1" fill="#A5026E" />
<rect x="20" y="21" width="1" height="1" fill="#A5026E" />
<rect x="21" y="21" width="1" height="1" fill="#A5026E" />
<rect x="22" y="21" width="1" height="1" fill="#221F40" />
<rect x="9" y="22" width="1" height="1" fill="#221F40" />
<rect x="10" y="22" width="1" height="1" fill="#FF478C" />
<rect x="11" y="22" width="1" height="1" fill="#FF478C" />
<rect x="12" y="22" width="1" height="1" fill="#A5026E" />
<rect x="13" y="22" width="1" height="1" fill="#F1FBEC" />
<rect x="14" y="22" width="1" height="1" fill="#F1FBEC" />
<rect x="15" y="22" width="1" height="1" fill="#DBE7EA" />
<rect x="16" y="22" width="1" height="1" fill="#221F40" />
<rect x="17" y="22" width="1" height="1" fill="#DBE7EA" />
<rect x="18" y="22" width="1" height="1" fill="#F1FBEC" />
<rect x="19" y="22" width="1" height="1" fill="#F1FBEC" />
<rect x="20" y="22" width="1" height="1" fill="#A5026E" />
<rect x="21" y="22" width="1" height="1" fill="#FF478C" />
<rect x="22" y="22" width="1" height="1" fill="#FF478C" />
<rect x="23" y="22" width="1" height="1" fill="#221F40" />
</svg>