<?xml version="1.0" encoding="UTF-8" ?>
<svg version="1.1" width="32" height="32" xmlns="http://www.w3.org/2000/svg" shape-rendering="crispEdges">
<rect x="7" y="0" width="1" height="1" fill="#BF603A" />
<rect x="8" y="0" width="1" height="1" fill="#F4C682" />
<rect x="9" y="0" width="1" height="1" fill="#F4C682" />
<rect x="10" y="0" width="1" height="1" fill="#F4C682" />
<rect x="11" y="0" width="1" height="1" fill="#F4C682" />
<rect x="12" y="0" width="1" height="1" fill="#FFDDB7" />
<rect x="13" y="0" width="1" height="1" fill="#F4C682" />
<rect x="14" y="0" width="1" height="1" fill="#F4C682" />
<rect x="15" y="0" width="1" height="1" fill="#FFDDB7" />
<rect x="16" y="0" width="1" height="1" fill="#FFDDB7" />
<rect x="17" y="0" width="1" height="1" fill="#FFDDB7" />
<rect x="18" y="0" width="1" height="1" fill="#FFDDB7" />
<rect x="19" y="0" width="1" height="1" fill="#FFDDB7" />
<rect x="20" y="0" width="1" height="1" fill="#FFDDB7" />
<rect x="21" y="0" width="1" height="1" fill="#FFDDB7" />
<rect x="22" y="0" width="1" height="1" fill="#FFDDB7" />
<rect x="23" y="0" width="1" height="1" fill="#FFDDB7" />
<rect x="24" y="0" width="1" height="1" fill="#FFDDB7" />
<rect x="25" y="0" width="1" height="1" fill="#FFDDB7" />
<rect x="26" y="0" width="1" height="1" fill="#FFDDB7" />
<rect x="27" y="0" width="1" height="1" fill="#FFDDB7" />
<rect x="28" y="0" width="1" height="1" fill="#FFDDB7" />
<rect x="29" y="0" width="1" height="1" fill="#FFDDB7" />
<rect x="30" y="0" width="1" height="1" fill="#FFDDB7" />
<rect x="31" y="0" width="1" height="1" fill="#FFDDB7" />
<rect x="7" y="1" width="1" height="1" fill="#BF603A" />
<rect x="8" y="1" width="1" height="1" fill="#F4C682" />
<rect x="9" y="1" width="1" height="1" fill="#F4C682" />
<rect x="10" y="1" width="1" height="1" fill="#F4C682" />
<rect x="11" y="1" width="1" height="1" fill="#FFDDB7" />
<rect x="12" y="1" width="1" height="1" fill="#FFDDB7" />
<rect x="13" y="1" width="1" height="1" fill="#F4C682" />
<rect x="14" y="1" width="1" height="1" fill="#FFDDB7" />
<rect x="15" y="1" width="1" height="1" fill="#FFDDB7" />
<rect x="16" y="1" width="1" height="1" fill="#FFDDB7" />
<rect x="17" y="1" width="1" height="1" fill="#FFDDB7" />
<rect x="18" y="1" width="1" height="1" fill="#FFDDB7" />
<rect x="19" y="1" width="1" height="1" fill="#FFDDB7" />
<rect x="20" y="1" width="1" height="1" fill="#FFDDB7" />
<rect x="21" y="1" width="1" height="1" fill="#FFDDB7" />
<rect x="22" y="1" width="1" height="1" fill="#FFDDB7" />
<rect x="23" y="1" width="1" height="1" fill="#FFDDB7" />
<rect x="24" y="1" width="1" height="1" fill="#FFDDB7" />
<rect x="25" y="1" width="1" height="1" fill="#FFDDB7" />
<rect x="26" y="1" width="1" height="1" fill="#FFDDB7" />
<rect x="27" y="1" width="1" height="1" fill="#FFDDB7" />
<rect x="28" y="1" width="1" height="1" fill="#FFDDB7" />
<rect x="29" y="1" width="1" height="1" fill="#FFDDB7" />
<rect x="30" y="1" width="1" height="1" fill="#FFDDB7" />
<rect x="31" y="1" width="1" height="1" fill="#FFDDB7" />
<rect x="7" y="2" width="1" height="1" fill="#BF603A" />
<rect x="8" y="2" width="1" height="1" fill="#F4C682" />
<rect x="9" y="2" width="1" height="1" fill="#F4C682" />
<rect x="10" y="2" width="1" height="1" fill="#F4C682" />
<rect x="11" y="2" width="1" height="1" fill="#FFDDB7" />
<rect x="12" y="2" width="1" height="1" fill="#FFDDB7" />
<rect x="13" y="2" width="1" height="1" fill="#F4C682" />
<rect x="14" y="2" width="1" height="1" fill="#FFDDB7" />
<rect x="15" y="2" width="1" height="1" fill="#FFDDB7" />
<rect x="16" y="2" width="1" height="1" fill="#F4C682" />
<rect x="17" y="2" width="1" height="1" fill="#FFDDB7" />
<rect x="18" y="2" width="1" height="1" fill="#FFDDB7" />
<rect x="19" y="2" width="1" height="1" fill="#FFDDB7" />
<rect x="20" y="2" width="1" height="1" fill="#FFDDB7" />
<rect x="21" y="2" width="1" height="1" fill="#FFDDB7" />
<rect x="22" y="2" width="1" height="1" fill="#FFDDB7" />
<rect x="23" y="2" width="1" height="1" fill="#FFDDB7" />
<rect x="24" y="2" width="1" height="1" fill="#FFDDB7" />
<rect x="25" y="2" width="1" height="1" fill="#FFDDB7" />
<rect x="26" y="2" width="1" height="1" fill="#FFDDB7" />
<rect x="27" y="2" width="1" height="1" fill="#FFDDB7" />
<rect x="28" y="2" width="1" height="1" fill="#FFDDB7" />
<rect x="29" y="2" width="1" height="1" fill="#FFDDB7" />
<rect x="30" y="2" width="1" height="1" fill="#FFDDB7" />
<rect x="31" y="2" width="1" height="1" fill="#FFDDB7" />
<rect x="8" y="3" width="1" height="1" fill="#BF603A" />
<rect x="9" y="3" width="1" height="1" fill="#F4C682" />
<rect x="10" y="3" width="1" height="1" fill="#FFDDB7" />
<rect x="11" y="3" width="1" height="1" fill="#FFDDB7" />
<rect x="12" y="3" width="1" height="1" fill="#FFDDB7" />
<rect x="13" y="3" width="1" height="1" fill="#F4C682" />
<rect x="14" y="3" width="1" height="1" fill="#FFDDB7" />
<rect x="15" y="3" width="1" height="1" fill="#FFDDB7" />
<rect x="16" y="3" width="1" height="1" fill="#FFDDB7" />
<rect x="17" y="3" width="1" height="1" fill="#F4C682" />
<rect x="18" y="3" width="1" height="1" fill="#F4C682" />
<rect x="19" y="3" width="1" height="1" fill="#FFDDB7" />
<rect x="20" y="3" width="1" height="1" fill="#FFDDB7" />
<rect x="21" y="3" width="1" height="1" fill="#FFDDB7" />
<rect x="22" y="3" width="1" height="1" fill="#FFDDB7" />
<rect x="23" y="3" width="1" height="1" fill="#FFDDB7" />
<rect x="24" y="3" width="1" height="1" fill="#FFDDB7" />
<rect x="25" y="3" width="1" height="1" fill="#FFDDB7" />
<rect x="26" y="3" width="1" height="1" fill="#FFDDB7" />
<rect x="27" y="3" width="1" height="1" fill="#FFDDB7" />
<rect x="28" y="3" width="1" height="1" fill="#FFDDB7" />
<rect x="29" y="3" width="1" height="1" fill="#FFDDB7" />
<rect x="30" y="3" width="1" height="1" fill="#FFDDB7" />
<rect x="31" y="3" width="1" height="1" fill="#FFDDB7" />
<rect x="9" y="4" width="1" height="1" fill="#BF603A" />
<rect x="10" y="4" width="1" height="1" fill="#FFDDB7" />
<rect x="11" y="4" width="1" height="1" fill="#FFDDB7" />
<rect x="12" y="4" width="1" height="1" fill="#FFDDB7" />
<rect x="13" y="4" width="1" height="1" fill="#FFDDB7" />
<rect x="14" y="4" width="1" height="1" fill="#FFDDB7" />
<rect x="15" y="4" width="1" height="1" fill="#FFDDB7" />
<rect x="16" y="4" width="1" height="1" fill="#FFDDB7" />
<rect x="17" y="4" width="1" height="1" fill="#FFDDB7" />
<rect x="18" y="4" width="1" height="1" fill="#F4C682" />
<rect x="19" y="4" width="1" height="1" fill="#F4C682" />
<rect x="20" y="4" width="1" height="1" fill="#F4C682" />
<rect x="21" y="4" width="1" height="1" fill="#FFDDB7" />
<rect x="22" y="4" width="1" height="1" fill="#FFDDB7" />
<rect x="23" y="4" width="1" height="1" fill="#FFDDB7" />
<rect x="24" y="4" width="1" height="1" fill="#FFDDB7" />
<rect x="25" y="4" width="1" height="1" fill="#FFDDB7" />
<rect x="26" y="4" width="1" height="1" fill="#FFDDB7" />
<rect x="27" y="4" width="1" height="1" fill="#FFDDB7" />
<rect x="28" y="4" width="1" height="1" fill="#FFDDB7" />
<rect x="29" y="4" width="1" height="1" fill="#FFDDB7" />
<rect x="30" y="4" width="1" height="1" fill="#FFDDB7" />
<rect x="31" y="4" width="1" height="1" fill="#FFDDB7" />
<rect x="9" y="5" width="1" height="1" fill="#BF603A" />
<rect x="10" y="5" width="1" height="1" fill="#FFDDB7" />
<rect x="11" y="5" width="1" height="1" fill="#FFDDB7" />
<rect x="12" y="5" width="1" height="1" fill="#FFDDB7" />
<rect x="13" y="5" width="1" height="1" fill="#FFDDB7" />
<rect x="14" y="5" width="1" height="1" fill="#FFDDB7" />
<rect x="15" y="5" width="1" height="1" fill="#FFDDB7" />
<rect x="16" y="5" width="1" height="1" fill="#FFDDB7" />
<rect x="17" y="5" width="1" height="1" fill="#FFDDB7" />
<rect x="18" y="5" width="1" height="1" fill="#FFDDB7" />
<rect x="19" y="5" width="1" height="1" fill="#FFDDB7" />
<rect x="20" y="5" width="1" height="1" fill="#F4C682" />
<rect x="21" y="5" width="1" height="1" fill="#F4C682" />
<rect x="22" y="5" width="1" height="1" fill="#F4C682" />
<rect x="23" y="5" width="1" height="1" fill="#F4C682" />
<rect x="24" y="5" width="1" height="1" fill="#FFDDB7" />
<rect x="25" y="5" width="1" height="1" fill="#FFDDB7" />
<rect x="26" y="5" width="1" height="1" fill="#FFDDB7" />
<rect x="27" y="5" width="1" height="1" fill="#FFDDB7" />
<rect x="28" y="5" width="1" height="1" fill="#FFDDB7" />
<rect x="29" y="5" width="1" height="1" fill="#FFDDB7" />
<rect x="30" y="5" width="1" height="1" fill="#FFDDB7" />
<rect x="31" y="5" width="1" height="1" fill="#FFDDB7" />
<rect x="9" y="6" width="1" height="1" fill="#BF603A" />
<rect x="10" y="6" width="1" height="1" fill="#FFDDB7" />
<rect x="11" y="6" width="1" height="1" fill="#FFDDB7" />
<rect x="12" y="6" width="1" height="1" fill="#FFDDB7" />
<rect x="13" y="6" width="1" height="1" fill="#F4C682" />
<rect x="14" y="6" width="1" height="1" fill="#F4C682" />
<rect x="15" y="6" width="1" height="1" fill="#FFDDB7" />
<rect x="16" y="6" width="1" height="1" fill="#FFDDB7" />
<rect x="17" y="6" width="1" height="1" fill="#FFDDB7" />
<rect x="18" y="6" width="1" height="1" fill="#FFDDB7" />
<rect x="19" y="6" width="1" height="1" fill="#FFDDB7" />
<rect x="20" y="6" width="1" height="1" fill="#FFDDB7" />
<rect x="21" y="6" width="1" height="1" fill="#F4C682" />
<rect x="22" y="6" width="1" height="1" fill="#FFDDB7" />
<rect x="23" y="6" width="1" height="1" fill="#FFDDB7" />
<rect x="24" y="6" width="1" height="1" fill="#FFDDB7" />
<rect x="25" y="6" width="1" height="1" fill="#FFDDB7" />
<rect x="26" y="6" width="1" height="1" fill="#F4C682" />
<rect x="27" y="6" width="1" height="1" fill="#F4C682" />
<rect x="28" y="6" width="1" height="1" fill="#F4C682" />
<rect x="29" y="6" width="1" height="1" fill="#F4C682" />
<rect x="30" y="6" width="1" height="1" fill="#F4C682" />
<rect x="31" y="6" width="1" height="1" fill="#F4C682" />
<rect x="10" y="7" width="1" height="1" fill="#BF603A" />
<rect x="11" y="7" width="1" height="1" fill="#FFDDB7" />
<rect x="12" y="7" width="1" height="1" fill="#FFDDB7" />
<rect x="13" y="7" width="1" height="1" fill="#F4C682" />
<rect x="14" y="7" width="1" height="1" fill="#F4C682" />
<rect x="15" y="7" width="1" height="1" fill="#F4C682" />
<rect x="16" y="7" width="1" height="1" fill="#FFDDB7" />
<rect x="17" y="7" width="1" height="1" fill="#FFDDB7" />
<rect x="18" y="7" width="1" height="1" fill="#FFDDB7" />
<rect x="19" y="7" width="1" height="1" fill="#FFDDB7" />
<rect x="20" y="7" width="1" height="1" fill="#FFDDB7" />
<rect x="21" y="7" width="1" height="1" fill="#F4C682" />
<rect x="22" y="7" width="1" height="1" fill="#FFDDB7" />
<rect x="23" y="7" width="1" height="1" fill="#FFDDB7" />
<rect x="24" y="7" width="1" height="1" fill="#FFDDB7" />
<rect x="25" y="7" width="1" height="1" fill="#FFDDB7" />
<rect x="26" y="7" width="1" height="1" fill="#FFDDB7" />
<rect x="27" y="7" width="1" height="1" fill="#FFDDB7" />
<rect x="28" y="7" width="1" height="1" fill="#FFDDB7" />
<rect x="29" y="7" width="1" height="1" fill="#FFDDB7" />
<rect x="30" y="7" width="1" height="1" fill="#F4C682" />
<rect x="31" y="7" width="1" height="1" fill="#F4C682" />
<rect x="11" y="8" width="1" height="1" fill="#BF603A" />
<rect x="12" y="8" width="1" height="1" fill="#BF603A" />
<rect x="13" y="8" width="1" height="1" fill="#F4C682" />
<rect x="14" y="8" width="1" height="1" fill="#F4C682" />
<rect x="15" y="8" width="1" height="1" fill="#F4C682" />
<rect x="16" y="8" width="1" height="1" fill="#FFDDB7" />
<rect x="17" y="8" width="1" height="1" fill="#FFDDB7" />
<rect x="18" y="8" width="1" height="1" fill="#FFDDB7" />
<rect x="19" y="8" width="1" height="1" fill="#FFDDB7" />
<rect x="20" y="8" width="1" height="1" fill="#FFDDB7" />
<rect x="21" y="8" width="1" height="1" fill="#F4C682" />
<rect x="22" y="8" width="1" height="1" fill="#FFDDB7" />
<rect x="23" y="8" width="1" height="1" fill="#FFDDB7" />
<rect x="24" y="8" width="1" height="1" fill="#FFDDB7" />
<rect x="25" y="8" width="1" height="1" fill="#FFDDB7" />
<rect x="26" y="8" width="1" height="1" fill="#FFDDB7" />
<rect x="27" y="8" width="1" height="1" fill="#FFDDB7" />
<rect x="28" y="8" width="1" height="1" fill="#FFDDB7" />
<rect x="29" y="8" width="1" height="1" fill="#FFDDB7" />
<rect x="30" y="8" width="1" height="1" fill="#F4C682" />
<rect x="31" y="8" width="1" height="1" fill="#F4C682" />
<rect x="13" y="9" width="1" height="1" fill="#BF603A" />
<rect x="14" y="9" width="1" height="1" fill="#F4C682" />
<rect x="15" y="9" width="1" height="1" fill="#FFDDB7" />
<rect x="16" y="9" width="1" height="1" fill="#FFDDB7" />
<rect x="17" y="9" width="1" height="1" fill="#FFDDB7" />
<rect x="18" y="9" width="1" height="1" fill="#FFDDB7" />
<rect x="19" y="9" width="1" height="1" fill="#FFDDB7" />
<rect x="20" y="9" width="1" height="1" fill="#FFDDB7" />
<rect x="21" y="9" width="1" height="1" fill="#F4C682" />
<rect x="22" y="9" width="1" height="1" fill="#FFDDB7" />
<rect x="23" y="9" width="1" height="1" fill="#FFDDB7" />
<rect x="24" y="9" width="1" height="1" fill="#FFDDB7" />
<rect x="25" y="9" width="1" height="1" fill="#FFDDB7" />
<rect x="26" y="9" width="1" height="1" fill="#FFDDB7" />
<rect x="27" y="9" width="1" height="1" fill="#FFDDB7" />
<rect x="28" y="9" width="1" height="1" fill="#FFDDB7" />
<rect x="29" y="9" width="1" height="1" fill="#FFDDB7" />
<rect x="30" y="9" width="1" height="1" fill="#F4C682" />
<rect x="31" y="9" width="1" height="1" fill="#F4C682" />
<rect x="14" y="10" width="1" height="1" fill="#BF603A" />
<rect x="15" y="10" width="1" height="1" fill="#FFDDB7" />
<rect x="16" y="10" width="1" height="1" fill="#FFDDB7" />
<rect x="17" y="10" width="1" height="1" fill="#FFDDB7" />
<rect x="18" y="10" width="1" height="1" fill="#FFDDB7" />
<rect x="19" y="10" width="1" height="1" fill="#FFDDB7" />
<rect x="20" y="10" width="1" height="1" fill="#F4C682" />
<rect x="21" y="10" width="1" height="1" fill="#F4C682" />
<rect x="22" y="10" width="1" height="1" fill="#FFDDB7" />
<rect x="23" y="10" width="1" height="1" fill="#FFDDB7" />
<rect x="24" y="10" width="1" height="1" fill="#FFDDB7" />
<rect x="25" y="10" width="1" height="1" fill="#FFDDB7" />
<rect x="26" y="10" width="1" height="1" fill="#FFDDB7" />
<rect x="27" y="10" width="1" height="1" fill="#FFDDB7" />
<rect x="28" y="10" width="1" height="1" fill="#FFDDB7" />
<rect x="29" y="10" width="1" height="1" fill="#FFDDB7" />
<rect x="30" y="10" width="1" height="1" fill="#FFDDB7" />
<rect x="31" y="10" width="1" height="1" fill="#F4C682" />
<rect x="14" y="11" width="1" height="1" fill="#BF603A" />
<rect x="15" y="11" width="1" height="1" fill="#FFDDB7" />
<rect x="16" y="11" width="1" height="1" fill="#FFDDB7" />
<rect x="17" y="11" width="1" height="1" fill="#FFDDB7" />
<rect x="18" y="11" width="1" height="1" fill="#FFDDB7" />
<rect x="19" y="11" width="1" height="1" fill="#FFDDB7" />
<rect x="20" y="11" width="1" height="1" fill="#F4C682" />
<rect x="21" y="11" width="1" height="1" fill="#F4C682" />
<rect x="22" y="11" width="1" height="1" fill="#F4C682" />
<rect x="23" y="11" width="1" height="1" fill="#FFDDB7" />
<rect x="24" y="11" width="1" height="1" fill="#FFDDB7" />
<rect x="25" y="11" width="1" height="1" fill="#FFDDB7" />
<rect x="26" y="11" width="1" height="1" fill="#FFDDB7" />
<rect x="27" y="11" width="1" height="1" fill="#FFDDB7" />
<rect x="28" y="11" width="1" height="1" fill="#FFDDB7" />
<rect x="29" y="11" width="1" height="1" fill="#FFDDB7" />
<rect x="30" y="11" width="1" height="1" fill="#FFDDB7" />
<rect x="31" y="11" width="1" height="1" fill="#F4C682" />
<rect x="15" y="12" width="1" height="1" fill="#BF603A" />
<rect x="16" y="12" width="1" height="1" fill="#FFDDB7" />
<rect x="17" y="12" width="1" height="1" fill="#FFDDB7" />
<rect x="18" y="12" width="1" height="1" fill="#FFDDB7" />
<rect x="19" y="12" width="1" height="1" fill="#F4C682" />
<rect x="20" y="12" width="1" height="1" fill="#F4C682" />
<rect x="21" y="12" width="1" height="1" fill="#F4C682" />
<rect x="22" y="12" width="1" height="1" fill="#F4C682" />
<rect x="23" y="12" width="1" height="1" fill="#FFDDB7" />
<rect x="24" y="12" width="1" height="1" fill="#FFDDB7" />
<rect x="25" y="12" width="1" height="1" fill="#FFDDB7" />
<rect x="26" y="12" width="1" height="1" fill="#FFDDB7" />
<rect x="27" y="12" width="1" height="1" fill="#FFDDB7" />
<rect x="28" y="12" width="1" height="1" fill="#FFDDB7" />
<rect x="29" y="12" width="1" height="1" fill="#FFDDB7" />
<rect x="30" y="12" width="1" height="1" fill="#FFDDB7" />
<rect x="31" y="12" width="1" height="1" fill="#F4C682" />
<rect x="16" y="13" width="1" height="1" fill="#BF603A" />
<rect x="17" y="13" width="1" height="1" fill="#FFDDB7" />
<rect x="18" y="13" width="1" height="1" fill="#FFDDB7" />
<rect x="19" y="13" width="1" height="1" fill="#F4C682" />
<rect x="20" y="13" width="1" height="1" fill="#F4C682" />
<rect x="21" y="13" width="1" height="1" fill="#F4C682" />
<rect x="22" y="13" width="1" height="1" fill="#F4C682" />
<rect x="23" y="13" width="1" height="1" fill="#FFDDB7" />
<rect x="24" y="13" width="1" height="1" fill="#FFDDB7" />
<rect x="25" y="13" width="1" height="1" fill="#FFDDB7" />
<rect x="26" y="13" width="1" height="1" fill="#FFDDB7" />
<rect x="27" y="13" width="1" height="1" fill="#FFDDB7" />
<rect x="28" y="13" width="1" height="1" fill="#FFDDB7" />
<rect x="29" y="13" width="1" height="1" fill="#FFDDB7" />
<rect x="30" y="13" width="1" height="1" fill="#F4C682" />
<rect x="31" y="13" width="1" height="1" fill="#F4C682" />
<rect x="17" y="14" width="1" height="1" fill="#BF603A" />
<rect x="18" y="14" width="1" height="1" fill="#BF603A" />
<rect x="19" y="14" width="1" height="1" fill="#F4C682" />
<rect x="20" y="14" width="1" height="1" fill="#F4C682" />
<rect x="21" y="14" width="1" height="1" fill="#F4C682" />
<rect x="22" y="14" width="1" height="1" fill="#F4C682" />
<rect x="23" y="14" width="1" height="1" fill="#F4C682" />
<rect x="24" y="14" width="1" height="1" fill="#FFDDB7" />
<rect x="25" y="14" width="1" height="1" fill="#FFDDB7" />
<rect x="26" y="14" width="1" height="1" fill="#FFDDB7" />
<rect x="27" y="14" width="1" height="1" fill="#FFDDB7" />
<rect x="28" y="14" width="1" height="1" fill="#FFDDB7" />
<rect x="29" y="14" width="1" height="1" fill="#FFDDB7" />
<rect x="30" y="14" width="1" height="1" fill="#F4C682" />
<rect x="31" y="14" width="1" height="1" fill="#F4C682" />
<rect x="19" y="15" width="1" height="1" fill="#BF603A" />
<rect x="20" y="15" width="1" height="1" fill="#BF603A" />
<rect x="21" y="15" width="1" height="1" fill="#BF603A" />
<rect x="22" y="15" width="1" height="1" fill="#BF603A" />
<rect x="23" y="15" width="1" height="1" fill="#BF603A" />
<rect x="24" y="15" width="1" height="1" fill="#FFDDB7" />
<rect x="25" y="15" width="1" height="1" fill="#FFDDB7" />
<rect x="26" y="15" width="1" height="1" fill="#FFDDB7" />
<rect x="27" y="15" width="1" height="1" fill="#FFDDB7" />
<rect x="28" y="15" width="1" height="1" fill="#FFDDB7" />
<rect x="29" y="15" width="1" height="1" fill="#FFDDB7" />
<rect x="30" y="15" width="1" height="1" fill="#BF603A" />
<rect x="31" y="15" width="1" height="1" fill="#BF603A" />
<rect x="24" y="16" width="1" height="1" fill="#BF603A" />
<rect x="25" y="16" width="1" height="1" fill="#BF603A" />
<rect x="26" y="16" width="1" height="1" fill="#BF603A" />
<rect x="27" y="16" width="1" height="1" fill="#BF603A" />
<rect x="28" y="16" width="1" height="1" fill="#BF603A" />
<rect x="29" y="16" width="1" height="1" fill="#BF603A" />
<rect x="30" y="16" width="1" height="1" fill="#336478" />
<rect x="31" y="16" width="1" height="1" fill="#336478" />
<rect x="24" y="17" width="1" height="1" fill="#221F40" />
<rect x="25" y="17" width="1" height="1" fill="#2C3B4F" />
<rect x="26" y="17" width="1" height="1" fill="#2C3B4F" />
<rect x="27" y="17" width="1" height="1" fill="#2C3B4F" />
<rect x="28" y="17" width="1" height="1" fill="#2C3B4F" />
<rect x="29" y="17" width="1" height="1" fill="#336478" />
<rect x="30" y="17" width="1" height="1" fill="#336478" />
<rect x="31" y="17" width="1" height="1" fill="#336478" />
<rect x="27" y="18" width="1" height="1" fill="#221F40" />
<rect x="28" y="18" width="1" height="1" fill="#2C3B4F" />
<rect x="29" y="18" width="1" height="1" fill="#2C3B4F" />
<rect x="30" y="18" width="1" height="1" fill="#336478" />
<rect x="31" y="18" width="1" height="1" fill="#336478" />
<rect x="26" y="19" width="1" height="1" fill="#221F40" />
<rect x="27" y="19" width="1" height="1" fill="#336478" />
<rect x="28" y="19" width="1" height="1" fill="#336478" />
<rect x="29" y="19" width="1" height="1" fill="#336478" />
<rect x="30" y="19" width="1" height="1" fill="#336478" />
<rect x="31" y="19" width="1" height="1" fill="#336478" />
<rect x="25" y="20" width="1" height="1" fill="#221F40" />
<rect x="26" y="20" width="1" height="1" fill="#336478" />
<rect x="27" y="20" width="1" height="1" fill="#336478" />
<rect x="28" y="20" width="1" height="1" fill="#336478" />
<rect x="29" y="20" width="1" height="1" fill="#336478" />
<rect x="30" y="20" width="1" height="1" fill="#336478" />
<rect x="31" y="20" width="1" height="1" fill="#336478" />
<rect x="24" y="21" width="1" height="1" fill="#221F40" />
<rect x="25" y="21" width="1" height="1" fill="#336478" />
<rect x="26" y="21" width="1" height="1" fill="#336478" />
<rect x="27" y="21" width="1" height="1" fill="#336478" />
<rect x="28" y="21" width="1" height="1" fill="#336478" />
<rect x="29" y="21" width="1" height="1" fill="#336478" />
<rect x="30" y="21" width="1" height="1" fill="#336478" />
<rect x="31" y="21" width="1" height="1" fill="#2C3B4F" />
<rect x="24" y="22" width="1" height="1" fill="#221F40" />
<rect x="25" y="22" width="1" height="1" fill="#336478" />
<rect x="26" y="22" width="1" height="1" fill="#336478" />
<rect x="27" y="22" width="1" height="1" fill="#336478" />
<rect x="28" y="22" width="1" height="1" fill="#336478" />
<rect x="29" y="22" width="1" height="1" fill="#2C3B4F" />
<rect x="30" y="22" width="1" height="1" fill="#221F40" />
<rect x="31" y="22" width="1" height="1" fill="#221F40" />
<rect x="24" y="23" width="1" height="1" fill="#221F40" />
<rect x="25" y="23" width="1" height="1" fill="#2C3B4F" />
<rect x="26" y="23" width="1" height="1" fill="#336478" />
<rect x="27" y="23" width="1" height="1" fill="#336478" />
<rect x="28" y="23" width="1" height="1" fill="#2C3B4F" />
<rect x="29" y="23" width="1" height="1" fill="#221F40" />
</svg>