<?xml version="1.0" encoding="UTF-8" ?>
<svg version="1.1" width="32" height="32" xmlns="http://www.w3.org/2000/svg" shape-rendering="crispEdges">
<rect x="21" y="6" width="1" height="1" fill="#53CB7B" />
<rect x="22" y="6" width="1" height="1" fill="#2B9A84" />
<rect x="23" y="6" width="1" height="1" fill="#53CB7B" />
<rect x="21" y="7" width="1" height="1" fill="#53CB7B" />
<rect x="22" y="7" width="1" height="1" fill="#53CB7B" />
<rect x="23" y="7" width="1" height="1" fill="#53CB7B" />
<rect x="7" y="8" width="1" height="1" fill="#221F40" />
<rect x="8" y="8" width="1" height="1" fill="#221F40" />
<rect x="9" y="8" width="1" height="1" fill="#221F40" />
<rect x="10" y="8" width="1" height="1" fill="#221F40" />
<rect x="11" y="8" width="1" height="1" fill="#221F40" />
<rect x="12" y="8" width="1" height="1" fill="#221F40" />
<rect x="13" y="8" width="1" height="1" fill="#221F40" />
<rect x="19" y="8" width="1" height="1" fill="#221F40" />
<rect x="20" y="8" width="1" height="1" fill="#221F40" />
<rect x="21" y="8" width="1" height="1" fill="#2B9A84" />
<rect x="22" y="8" width="1" height="1" fill="#2B9A84" />
<rect x="7" y="9" width="1" height="1" fill="#221F40" />
<rect x="8" y="9" width="1" height="1" fill="#6F8392" />
<rect x="9" y="9" width="1" height="1" fill="#6F8392" />
<rect x="10" y="9" width="1" height="1" fill="#6F8392" />
<rect x="11" y="9" width="1" height="1" fill="#6F8392" />
<rect x="12" y="9" width="1" height="1" fill="#46556D" />
<rect x="13" y="9" width="1" height="1" fill="#6F8392" />
<rect x="14" y="9" width="1" height="1" fill="#221F40" />
<rect x="18" y="9" width="1" height="1" fill="#221F40" />
<rect x="21" y="9" width="1" height="1" fill="#53CB7B" />
<rect x="22" y="9" width="1" height="1" fill="#53CB7B" />
<rect x="23" y="9" width="1" height="1" fill="#53CB7B" />
<rect x="7" y="10" width="1" height="1" fill="#221F40" />
<rect x="8" y="10" width="1" height="1" fill="#46556D" />
<rect x="9" y="10" width="1" height="1" fill="#6F8392" />
<rect x="10" y="10" width="1" height="1" fill="#6F8392" />
<rect x="11" y="10" width="1" height="1" fill="#6F8392" />
<rect x="12" y="10" width="1" height="1" fill="#46556D" />
<rect x="13" y="10" width="1" height="1" fill="#93A5B2" />
<rect x="14" y="10" width="1" height="1" fill="#FBBF48" />
<rect x="17" y="10" width="1" height="1" fill="#221F40" />
<rect x="21" y="10" width="1" height="1" fill="#53CB7B" />
<rect x="22" y="10" width="1" height="1" fill="#2B9A84" />
<rect x="23" y="10" width="1" height="1" fill="#53CB7B" />
<rect x="7" y="11" width="1" height="1" fill="#221F40" />
<rect x="8" y="11" width="1" height="1" fill="#93A5B2" />
<rect x="9" y="11" width="1" height="1" fill="#93A5B2" />
<rect x="10" y="11" width="1" height="1" fill="#93A5B2" />
<rect x="11" y="11" width="1" height="1" fill="#46556D" />
<rect x="12" y="11" width="1" height="1" fill="#46556D" />
<rect x="13" y="11" width="1" height="1" fill="#93A5B2" />
<rect x="14" y="11" width="1" height="1" fill="#221F40" />
<rect x="17" y="11" width="1" height="1" fill="#221F40" />
<rect x="21" y="11" width="1" height="1" fill="#2B9A84" />
<rect x="22" y="11" width="1" height="1" fill="#2B9A84" />
<rect x="23" y="11" width="1" height="1" fill="#2B9A84" />
<rect x="7" y="12" width="1" height="1" fill="#221F40" />
<rect x="8" y="12" width="1" height="1" fill="#93A5B2" />
<rect x="9" y="12" width="1" height="1" fill="#93A5B2" />
<rect x="10" y="12" width="1" height="1" fill="#93A5B2" />
<rect x="11" y="12" width="1" height="1" fill="#93A5B2" />
<rect x="12" y="12" width="1" height="1" fill="#93A5B2" />
<rect x="13" y="12" width="1" height="1" fill="#93A5B2" />
<rect x="14" y="12" width="1" height="1" fill="#53CB7B" />
<rect x="15" y="12" width="1" height="1" fill="#221F40" />
<rect x="16" y="12" width="1" height="1" fill="#221F40" />
<rect x="7" y="13" width="1" height="1" fill="#221F40" />
<rect x="8" y="13" width="1" height="1" fill="#93A5B2" />
<rect x="9" y="13" width="1" height="1" fill="#93A5B2" />
<rect x="10" y="13" width="1" height="1" fill="#93A5B2" />
<rect x="11" y="13" width="1" height="1" fill="#93A5B2" />
<rect x="12" y="13" width="1" height="1" fill="#93A5B2" />
<rect x="13" y="13" width="1" height="1" fill="#93A5B2" />
<rect x="14" y="13" width="1" height="1" fill="#6F8392" />
<rect x="15" y="13" width="1" height="1" fill="#6F8392" />
<rect x="7" y="14" width="1" height="1" fill="#221F40" />
<rect x="8" y="14" width="1" height="1" fill="#93A5B2" />
<rect x="9" y="14" width="1" height="1" fill="#93A5B2" />
<rect x="10" y="14" width="1" height="1" fill="#93A5B2" />
<rect x="11" y="14" width="1" height="1" fill="#93A5B2" />
<rect x="12" y="14" width="1" height="1" fill="#93A5B2" />
<rect x="13" y="14" width="1" height="1" fill="#93A5B2" />
<rect x="14" y="14" width="1" height="1" fill="#6F8392" />
<rect x="15" y="14" width="1" height="1" fill="#93A5B2" />
<rect x="7" y="15" width="1" height="1" fill="#221F40" />
<rect x="8" y="15" width="1" height="1" fill="#6F8392" />
<rect x="9" y="15" width="1" height="1" fill="#6F8392" />
<rect x="10" y="15" width="1" height="1" fill="#93A5B2" />
<rect x="11" y="15" width="1" height="1" fill="#93A5B2" />
<rect x="12" y="15" width="1" height="1" fill="#93A5B2" />
<rect x="13" y="15" width="1" height="1" fill="#93A5B2" />
<rect x="14" y="15" width="1" height="1" fill="#6F8392" />
<rect x="15" y="15" width="1" height="1" fill="#6F8392" />
<rect x="20" y="15" width="1" height="1" fill="#DF49E5" />
<rect x="21" y="15" width="1" height="1" fill="#9E2398" />
<rect x="22" y="15" width="1" height="1" fill="#DF49E5" />
<rect x="7" y="16" width="1" height="1" fill="#221F40" />
<rect x="8" y="16" width="1" height="1" fill="#46556D" />
<rect x="9" y="16" width="1" height="1" fill="#46556D" />
<rect x="10" y="16" width="1" height="1" fill="#46556D" />
<rect x="11" y="16" width="1" height="1" fill="#6F8392" />
<rect x="12" y="16" width="1" height="1" fill="#6F8392" />
<rect x="13" y="16" width="1" height="1" fill="#93A5B2" />
<rect x="14" y="16" width="1" height="1" fill="#6F8392" />
<rect x="15" y="16" width="1" height="1" fill="#93A5B2" />
<rect x="17" y="16" width="1" height="1" fill="#221F40" />
<rect x="20" y="16" width="1" height="1" fill="#DF49E5" />
<rect x="21" y="16" width="1" height="1" fill="#DF49E5" />
<rect x="22" y="16" width="1" height="1" fill="#DF49E5" />
<rect x="7" y="17" width="1" height="1" fill="#221F40" />
<rect x="8" y="17" width="1" height="1" fill="#93A5B2" />
<rect x="9" y="17" width="1" height="1" fill="#93A5B2" />
<rect x="10" y="17" width="1" height="1" fill="#93A5B2" />
<rect x="11" y="17" width="1" height="1" fill="#93A5B2" />
<rect x="12" y="17" width="1" height="1" fill="#6F8392" />
<rect x="13" y="17" width="1" height="1" fill="#93A5B2" />
<rect x="14" y="17" width="1" height="1" fill="#6F8392" />
<rect x="15" y="17" width="1" height="1" fill="#6F8392" />
<rect x="16" y="17" width="1" height="1" fill="#221F40" />
<rect x="18" y="17" width="1" height="1" fill="#221F40" />
<rect x="19" y="17" width="1" height="1" fill="#221F40" />
<rect x="20" y="17" width="1" height="1" fill="#9E2398" />
<rect x="21" y="17" width="1" height="1" fill="#9E2398" />
<rect x="7" y="18" width="1" height="1" fill="#221F40" />
<rect x="8" y="18" width="1" height="1" fill="#93A5B2" />
<rect x="9" y="18" width="1" height="1" fill="#93A5B2" />
<rect x="10" y="18" width="1" height="1" fill="#93A5B2" />
<rect x="11" y="18" width="1" height="1" fill="#93A5B2" />
<rect x="12" y="18" width="1" height="1" fill="#6F8392" />
<rect x="13" y="18" width="1" height="1" fill="#93A5B2" />
<rect x="14" y="18" width="1" height="1" fill="#DF49E5" />
<rect x="15" y="18" width="1" height="1" fill="#221F40" />
<rect x="20" y="18" width="1" height="1" fill="#DF49E5" />
<rect x="21" y="18" width="1" height="1" fill="#DF49E5" />
<rect x="22" y="18" width="1" height="1" fill="#DF49E5" />
<rect x="7" y="19" width="1" height="1" fill="#221F40" />
<rect x="8" y="19" width="1" height="1" fill="#93A5B2" />
<rect x="9" y="19" width="1" height="1" fill="#93A5B2" />
<rect x="10" y="19" width="1" height="1" fill="#93A5B2" />
<rect x="11" y="19" width="1" height="1" fill="#93A5B2" />
<rect x="12" y="19" width="1" height="1" fill="#6F8392" />
<rect x="13" y="19" width="1" height="1" fill="#93A5B2" />
<rect x="14" y="19" width="1" height="1" fill="#221F40" />
<rect x="20" y="19" width="1" height="1" fill="#DF49E5" />
<rect x="21" y="19" width="1" height="1" fill="#9E2398" />
<rect x="22" y="19" width="1" height="1" fill="#DF49E5" />
<rect x="7" y="20" width="1" height="1" fill="#221F40" />
<rect x="8" y="20" width="1" height="1" fill="#6F8392" />
<rect x="9" y="20" width="1" height="1" fill="#6F8392" />
<rect x="10" y="20" width="1" height="1" fill="#6F8392" />
<rect x="11" y="20" width="1" height="1" fill="#6F8392" />
<rect x="12" y="20" width="1" height="1" fill="#6F8392" />
<rect x="13" y="20" width="1" height="1" fill="#6F8392" />
<rect x="14" y="20" width="1" height="1" fill="#31ABF4" />
<rect x="15" y="20" width="1" height="1" fill="#221F40" />
<rect x="16" y="20" width="1" height="1" fill="#221F40" />
<rect x="20" y="20" width="1" height="1" fill="#9E2398" />
<rect x="21" y="20" width="1" height="1" fill="#9E2398" />
<rect x="22" y="20" width="1" height="1" fill="#9E2398" />
<rect x="7" y="21" width="1" height="1" fill="#221F40" />
<rect x="8" y="21" width="1" height="1" fill="#6F8392" />
<rect x="9" y="21" width="1" height="1" fill="#6F8392" />
<rect x="10" y="21" width="1" height="1" fill="#46556D" />
<rect x="11" y="21" width="1" height="1" fill="#46556D" />
<rect x="12" y="21" width="1" height="1" fill="#6F8392" />
<rect x="13" y="21" width="1" height="1" fill="#6F8392" />
<rect x="14" y="21" width="1" height="1" fill="#221F40" />
<rect x="17" y="21" width="1" height="1" fill="#221F40" />
<rect x="7" y="22" width="1" height="1" fill="#221F40" />
<rect x="8" y="22" width="1" height="1" fill="#46556D" />
<rect x="9" y="22" width="1" height="1" fill="#6F8392" />
<rect x="10" y="22" width="1" height="1" fill="#6F8392" />
<rect x="11" y="22" width="1" height="1" fill="#6F8392" />
<rect x="12" y="22" width="1" height="1" fill="#6F8392" />
<rect x="13" y="22" width="1" height="1" fill="#46556D" />
<rect x="14" y="22" width="1" height="1" fill="#221F40" />
<rect x="16" y="22" width="1" height="1" fill="#221F40" />
<rect x="15" y="23" width="1" height="1" fill="#221F40" />
<rect x="19" y="23" width="1" height="1" fill="#31ABF4" />
<rect x="20" y="23" width="1" height="1" fill="#3D6BF4" />
<rect x="21" y="23" width="1" height="1" fill="#31ABF4" />
<rect x="16" y="24" width="1" height="1" fill="#221F40" />
<rect x="19" y="24" width="1" height="1" fill="#31ABF4" />
<rect x="20" y="24" width="1" height="1" fill="#31ABF4" />
<rect x="21" y="24" width="1" height="1" fill="#31ABF4" />
<rect x="17" y="25" width="1" height="1" fill="#221F40" />
<rect x="18" y="25" width="1" height="1" fill="#221F40" />
<rect x="19" y="25" width="1" height="1" fill="#3D6BF4" />
<rect x="20" y="25" width="1" height="1" fill="#3D6BF4" />
<rect x="19" y="26" width="1" height="1" fill="#31ABF4" />
<rect x="20" y="26" width="1" height="1" fill="#31ABF4" />
<rect x="21" y="26" width="1" height="1" fill="#31ABF4" />
<rect x="19" y="27" width="1" height="1" fill="#31ABF4" />
<rect x="20" y="27" width="1" height="1" fill="#3D6BF4" />
<rect x="21" y="27" width="1" height="1" fill="#31ABF4" />
<rect x="19" y="28" width="1" height="1" fill="#3D6BF4" />
<rect x="20" y="28" width="1" height="1" fill="#3D6BF4" />
<rect x="21" y="28" width="1" height="1" fill="#3D6BF4" />
</svg>