<?xml version="1.0" encoding="UTF-8" ?>
<svg version="1.1" width="32" height="32" xmlns="http://www.w3.org/2000/svg" shape-rendering="crispEdges">
<rect x="12" y="20" width="1" height="1" fill="#336478" />
<rect x="13" y="20" width="1" height="1" fill="#2C3B4F" />
<rect x="14" y="20" width="1" height="1" fill="#2C3B4F" />
<rect x="15" y="20" width="1" height="1" fill="#2C3B4F" />
<rect x="16" y="20" width="1" height="1" fill="#2C3B4F" />
<rect x="17" y="20" width="1" height="1" fill="#2C3B4F" />
<rect x="18" y="20" width="1" height="1" fill="#2C3B4F" />
<rect x="19" y="20" width="1" height="1" fill="#336478" />
<rect x="11" y="21" width="1" height="1" fill="#336478" />
<rect x="12" y="21" width="1" height="1" fill="#2B9A84" />
<rect x="13" y="21" width="1" height="1" fill="#2B9A84" />
<rect x="14" y="21" width="1" height="1" fill="#2B9A84" />
<rect x="15" y="21" width="1" height="1" fill="#2B9A84" />
<rect x="16" y="21" width="1" height="1" fill="#2B9A84" />
<rect x="17" y="21" width="1" height="1" fill="#2B9A84" />
<rect x="18" y="21" width="1" height="1" fill="#2B9A84" />
<rect x="19" y="21" width="1" height="1" fill="#2B9A84" />
<rect x="11" y="22" width="1" height="1" fill="#2C3B4F" />
<rect x="12" y="22" width="1" height="1" fill="#53CB7B" />
<rect x="13" y="22" width="1" height="1" fill="#2B9A84" />
<rect x="14" y="22" width="1" height="1" fill="#2C3B4F" />
<rect x="15" y="22" width="1" height="1" fill="#2C3B4F" />
<rect x="16" y="22" width="1" height="1" fill="#2C3B4F" />
<rect x="17" y="22" width="1" height="1" fill="#2C3B4F" />
<rect x="18" y="22" width="1" height="1" fill="#2B9A84" />
<rect x="19" y="22" width="1" height="1" fill="#53CB7B" />
<rect x="20" y="22" width="1" height="1" fill="#2C3B4F" />
<rect x="10" y="23" width="1" height="1" fill="#2C3B4F" />
<rect x="11" y="23" width="1" height="1" fill="#53CB7B" />
<rect x="12" y="23" width="1" height="1" fill="#2B9A84" />
<rect x="13" y="23" width="1" height="1" fill="#2C3B4F" />
<rect x="14" y="23" width="1" height="1" fill="#2C3B4F" />
<rect x="15" y="23" width="1" height="1" fill="#2C3B4F" />
<rect x="16" y="23" width="1" height="1" fill="#2C3B4F" />
<rect x="17" y="23" width="1" height="1" fill="#2C3B4F" />
<rect x="18" y="23" width="1" height="1" fill="#2C3B4F" />
<rect x="19" y="23" width="1" height="1" fill="#2B9A84" />
<rect x="20" y="23" width="1" height="1" fill="#53CB7B" />
<rect x="21" y="23" width="1" height="1" fill="#2C3B4F" />
<rect x="10" y="24" width="1" height="1" fill="#2C3B4F" />
<rect x="11" y="24" width="1" height="1" fill="#53CB7B" />
<rect x="12" y="24" width="1" height="1" fill="#2C3B4F" />
<rect x="13" y="24" width="1" height="1" fill="#2C3B4F" />
<rect x="14" y="24" width="1" height="1" fill="#2C3B4F" />
<rect x="15" y="24" width="1" height="1" fill="#2C3B4F" />
<rect x="16" y="24" width="1" height="1" fill="#2C3B4F" />
<rect x="17" y="24" width="1" height="1" fill="#2C3B4F" />
<rect x="18" y="24" width="1" height="1" fill="#2C3B4F" />
<rect x="19" y="24" width="1" height="1" fill="#2C3B4F" />
<rect x="20" y="24" width="1" height="1" fill="#53CB7B" />
<rect x="21" y="24" width="1" height="1" fill="#2C3B4F" />
<rect x="10" y="25" width="1" height="1" fill="#2C3B4F" />
<rect x="11" y="25" width="1" height="1" fill="#53CB7B" />
<rect x="12" y="25" width="1" height="1" fill="#2C3B4F" />
<rect x="13" y="25" width="1" height="1" fill="#2C3B4F" />
<rect x="14" y="25" width="1" height="1" fill="#2C3B4F" />
<rect x="15" y="25" width="1" height="1" fill="#2C3B4F" />
<rect x="16" y="25" width="1" height="1" fill="#2C3B4F" />
<rect x="17" y="25" width="1" height="1" fill="#2C3B4F" />
<rect x="18" y="25" width="1" height="1" fill="#2C3B4F" />
<rect x="19" y="25" width="1" height="1" fill="#2C3B4F" />
<rect x="20" y="25" width="1" height="1" fill="#53CB7B" />
<rect x="21" y="25" width="1" height="1" fill="#2C3B4F" />
<rect x="10" y="26" width="1" height="1" fill="#2C3B4F" />
<rect x="11" y="26" width="1" height="1" fill="#53CB7B" />
<rect x="12" y="26" width="1" height="1" fill="#53CB7B" />
<rect x="13" y="26" width="1" height="1" fill="#2B9A84" />
<rect x="14" y="26" width="1" height="1" fill="#2C3B4F" />
<rect x="15" y="26" width="1" height="1" fill="#2C3B4F" />
<rect x="16" y="26" width="1" height="1" fill="#2C3B4F" />
<rect x="17" y="26" width="1" height="1" fill="#2C3B4F" />
<rect x="18" y="26" width="1" height="1" fill="#2B9A84" />
<rect x="19" y="26" width="1" height="1" fill="#53CB7B" />
<rect x="20" y="26" width="1" height="1" fill="#53CB7B" />
<rect x="21" y="26" width="1" height="1" fill="#2C3B4F" />
<rect x="10" y="27" width="1" height="1" fill="#2C3B4F" />
<rect x="11" y="27" width="1" height="1" fill="#53CB7B" />
<rect x="12" y="27" width="1" height="1" fill="#53CB7B" />
<rect x="13" y="27" width="1" height="1" fill="#53CB7B" />
<rect x="14" y="27" width="1" height="1" fill="#53CB7B" />
<rect x="15" y="27" width="1" height="1" fill="#53CB7B" />
<rect x="16" y="27" width="1" height="1" fill="#53CB7B" />
<rect x="17" y="27" width="1" height="1" fill="#53CB7B" />
<rect x="18" y="27" width="1" height="1" fill="#53CB7B" />
<rect x="19" y="27" width="1" height="1" fill="#53CB7B" />
<rect x="20" y="27" width="1" height="1" fill="#53CB7B" />
<rect x="21" y="27" width="1" height="1" fill="#2C3B4F" />
<rect x="9" y="28" width="1" height="1" fill="#2C3B4F" />
<rect x="10" y="28" width="1" height="1" fill="#2B9A84" />
<rect x="11" y="28" width="1" height="1" fill="#53CB7B" />
<rect x="12" y="28" width="1" height="1" fill="#53CB7B" />
<rect x="13" y="28" width="1" height="1" fill="#53CB7B" />
<rect x="14" y="28" width="1" height="1" fill="#53CB7B" />
<rect x="15" y="28" width="1" height="1" fill="#53CB7B" />
<rect x="16" y="28" width="1" height="1" fill="#53CB7B" />
<rect x="17" y="28" width="1" height="1" fill="#53CB7B" />
<rect x="18" y="28" width="1" height="1" fill="#53CB7B" />
<rect x="19" y="28" width="1" height="1" fill="#53CB7B" />
<rect x="20" y="28" width="1" height="1" fill="#53CB7B" />
<rect x="21" y="28" width="1" height="1" fill="#2B9A84" />
<rect x="22" y="28" width="1" height="1" fill="#2C3B4F" />
<rect x="9" y="29" width="1" height="1" fill="#2C3B4F" />
<rect x="10" y="29" width="1" height="1" fill="#2B9A84" />
<rect x="11" y="29" width="1" height="1" fill="#53CB7B" />
<rect x="12" y="29" width="1" height="1" fill="#53CB7B" />
<rect x="13" y="29" width="1" height="1" fill="#53CB7B" />
<rect x="14" y="29" width="1" height="1" fill="#53CB7B" />
<rect x="15" y="29" width="1" height="1" fill="#53CB7B" />
<rect x="16" y="29" width="1" height="1" fill="#53CB7B" />
<rect x="17" y="29" width="1" height="1" fill="#53CB7B" />
<rect x="18" y="29" width="1" height="1" fill="#53CB7B" />
<rect x="19" y="29" width="1" height="1" fill="#53CB7B" />
<rect x="20" y="29" width="1" height="1" fill="#53CB7B" />
<rect x="21" y="29" width="1" height="1" fill="#2B9A84" />
<rect x="22" y="29" width="1" height="1" fill="#2C3B4F" />
<rect x="9" y="30" width="1" height="1" fill="#2C3B4F" />
<rect x="10" y="30" width="1" height="1" fill="#53CB7B" />
<rect x="11" y="30" width="1" height="1" fill="#53CB7B" />
<rect x="12" y="30" width="1" height="1" fill="#53CB7B" />
<rect x="13" y="30" width="1" height="1" fill="#53CB7B" />
<rect x="14" y="30" width="1" height="1" fill="#53CB7B" />
<rect x="15" y="30" width="1" height="1" fill="#53CB7B" />
<rect x="16" y="30" width="1" height="1" fill="#53CB7B" />
<rect x="17" y="30" width="1" height="1" fill="#53CB7B" />
<rect x="18" y="30" width="1" height="1" fill="#53CB7B" />
<rect x="19" y="30" width="1" height="1" fill="#53CB7B" />
<rect x="20" y="30" width="1" height="1" fill="#53CB7B" />
<rect x="21" y="30" width="1" height="1" fill="#53CB7B" />
<rect x="22" y="30" width="1" height="1" fill="#2C3B4F" />
<rect x="9" y="31" width="1" height="1" fill="#2C3B4F" />
<rect x="10" y="31" width="1" height="1" fill="#53CB7B" />
<rect x="11" y="31" width="1" height="1" fill="#53CB7B" />
<rect x="12" y="31" width="1" height="1" fill="#53CB7B" />
<rect x="13" y="31" width="1" height="1" fill="#53CB7B" />
<rect x="14" y="31" width="1" height="1" fill="#53CB7B" />
<rect x="15" y="31" width="1" height="1" fill="#53CB7B" />
<rect x="16" y="31" width="1" height="1" fill="#53CB7B" />
<rect x="17" y="31" width="1" height="1" fill="#53CB7B" />
<rect x="18" y="31" width="1" height="1" fill="#53CB7B" />
<rect x="19" y="31" width="1" height="1" fill="#53CB7B" />
<rect x="20" y="31" width="1" height="1" fill="#53CB7B" />
<rect x="21" y="31" width="1" height="1" fill="#53CB7B" />
<rect x="22" y="31" width="1" height="1" fill="#2C3B4F" />
</svg>