<?xml version="1.0" encoding="UTF-8" ?>
<svg version="1.1" width="64" height="64" xmlns="http://www.w3.org/2000/svg" shape-rendering="crispEdges">
<rect x="24" y="40" width="1" height="1" fill="#323D5A" />
<rect x="25" y="40" width="1" height="1" fill="#323D5A" />
<rect x="26" y="40" width="1" height="1" fill="#323D5A" />
<rect x="27" y="40" width="1" height="1" fill="#323D5A" />
<rect x="28" y="40" width="1" height="1" fill="#323D5A" />
<rect x="29" y="40" width="1" height="1" fill="#323D5A" />
<rect x="30" y="40" width="1" height="1" fill="#323D5A" />
<rect x="31" y="40" width="1" height="1" fill="#323D5A" />
<rect x="32" y="40" width="1" height="1" fill="#323D5A" />
<rect x="33" y="40" width="1" height="1" fill="#323D5A" />
<rect x="34" y="40" width="1" height="1" fill="#323D5A" />
<rect x="35" y="40" width="1" height="1" fill="#323D5A" />
<rect x="36" y="40" width="1" height="1" fill="#323D5A" />
<rect x="37" y="40" width="1" height="1" fill="#323D5A" />
<rect x="38" y="40" width="1" height="1" fill="#323D5A" />
<rect x="39" y="40" width="1" height="1" fill="#323D5A" />
<rect x="24" y="41" width="1" height="1" fill="#323D5A" />
<rect x="25" y="41" width="1" height="1" fill="#323D5A" />
<rect x="26" y="41" width="1" height="1" fill="#323D5A" />
<rect x="27" y="41" width="1" height="1" fill="#323D5A" />
<rect x="28" y="41" width="1" height="1" fill="#323D5A" />
<rect x="29" y="41" width="1" height="1" fill="#323D5A" />
<rect x="30" y="41" width="1" height="1" fill="#323D5A" />
<rect x="31" y="41" width="1" height="1" fill="#323D5A" />
<rect x="32" y="41" width="1" height="1" fill="#323D5A" />
<rect x="33" y="41" width="1" height="1" fill="#323D5A" />
<rect x="34" y="41" width="1" height="1" fill="#323D5A" />
<rect x="35" y="41" width="1" height="1" fill="#323D5A" />
<rect x="36" y="41" width="1" height="1" fill="#323D5A" />
<rect x="37" y="41" width="1" height="1" fill="#323D5A" />
<rect x="38" y="41" width="1" height="1" fill="#323D5A" />
<rect x="39" y="41" width="1" height="1" fill="#323D5A" />
<rect x="22" y="42" width="1" height="1" fill="#323D5A" />
<rect x="23" y="42" width="1" height="1" fill="#323D5A" />
<rect x="24" y="42" width="1" height="1" fill="#349E89" />
<rect x="25" y="42" width="1" height="1" fill="#349E89" />
<rect x="26" y="42" width="1" height="1" fill="#349E89" />
<rect x="27" y="42" width="1" height="1" fill="#349E89" />
<rect x="28" y="42" width="1" height="1" fill="#349E89" />
<rect x="29" y="42" width="1" height="1" fill="#349E89" />
<rect x="30" y="42" width="1" height="1" fill="#349E89" />
<rect x="31" y="42" width="1" height="1" fill="#349E89" />
<rect x="32" y="42" width="1" height="1" fill="#349E89" />
<rect x="33" y="42" width="1" height="1" fill="#349E89" />
<rect x="34" y="42" width="1" height="1" fill="#349E89" />
<rect x="35" y="42" width="1" height="1" fill="#349E89" />
<rect x="36" y="42" width="1" height="1" fill="#349E89" />
<rect x="37" y="42" width="1" height="1" fill="#349E89" />
<rect x="38" y="42" width="1" height="1" fill="#349E89" />
<rect x="39" y="42" width="1" height="1" fill="#349E89" />
<rect x="40" y="42" width="1" height="1" fill="#323D5A" />
<rect x="41" y="42" width="1" height="1" fill="#323D5A" />
<rect x="22" y="43" width="1" height="1" fill="#323D5A" />
<rect x="23" y="43" width="1" height="1" fill="#323D5A" />
<rect x="24" y="43" width="1" height="1" fill="#349E89" />
<rect x="25" y="43" width="1" height="1" fill="#349E89" />
<rect x="26" y="43" width="1" height="1" fill="#349E89" />
<rect x="27" y="43" width="1" height="1" fill="#349E89" />
<rect x="28" y="43" width="1" height="1" fill="#349E89" />
<rect x="29" y="43" width="1" height="1" fill="#349E89" />
<rect x="30" y="43" width="1" height="1" fill="#349E89" />
<rect x="31" y="43" width="1" height="1" fill="#349E89" />
<rect x="32" y="43" width="1" height="1" fill="#349E89" />
<rect x="33" y="43" width="1" height="1" fill="#349E89" />
<rect x="34" y="43" width="1" height="1" fill="#349E89" />
<rect x="35" y="43" width="1" height="1" fill="#349E89" />
<rect x="36" y="43" width="1" height="1" fill="#349E89" />
<rect x="37" y="43" width="1" height="1" fill="#349E89" />
<rect x="38" y="43" width="1" height="1" fill="#349E89" />
<rect x="39" y="43" width="1" height="1" fill="#349E89" />
<rect x="40" y="43" width="1" height="1" fill="#323D5A" />
<rect x="41" y="43" width="1" height="1" fill="#323D5A" />
<rect x="22" y="44" width="1" height="1" fill="#323D5A" />
<rect x="23" y="44" width="1" height="1" fill="#323D5A" />
<rect x="24" y="44" width="1" height="1" fill="#53CB7B" />
<rect x="25" y="44" width="1" height="1" fill="#53CB7B" />
<rect x="26" y="44" width="1" height="1" fill="#349E89" />
<rect x="27" y="44" width="1" height="1" fill="#349E89" />
<rect x="28" y="44" width="1" height="1" fill="#323D5A" />
<rect x="29" y="44" width="1" height="1" fill="#323D5A" />
<rect x="30" y="44" width="1" height="1" fill="#323D5A" />
<rect x="31" y="44" width="1" height="1" fill="#323D5A" />
<rect x="32" y="44" width="1" height="1" fill="#323D5A" />
<rect x="33" y="44" width="1" height="1" fill="#323D5A" />
<rect x="34" y="44" width="1" height="1" fill="#323D5A" />
<rect x="35" y="44" width="1" height="1" fill="#323D5A" />
<rect x="36" y="44" width="1" height="1" fill="#349E89" />
<rect x="37" y="44" width="1" height="1" fill="#349E89" />
<rect x="38" y="44" width="1" height="1" fill="#53CB7B" />
<rect x="39" y="44" width="1" height="1" fill="#53CB7B" />
<rect x="40" y="44" width="1" height="1" fill="#323D5A" />
<rect x="41" y="44" width="1" height="1" fill="#323D5A" />
<rect x="22" y="45" width="1" height="1" fill="#323D5A" />
<rect x="23" y="45" width="1" height="1" fill="#323D5A" />
<rect x="24" y="45" width="1" height="1" fill="#53CB7B" />
<rect x="25" y="45" width="1" height="1" fill="#53CB7B" />
<rect x="26" y="45" width="1" height="1" fill="#349E89" />
<rect x="27" y="45" width="1" height="1" fill="#349E89" />
<rect x="28" y="45" width="1" height="1" fill="#323D5A" />
<rect x="29" y="45" width="1" height="1" fill="#323D5A" />
<rect x="30" y="45" width="1" height="1" fill="#323D5A" />
<rect x="31" y="45" width="1" height="1" fill="#323D5A" />
<rect x="32" y="45" width="1" height="1" fill="#323D5A" />
<rect x="33" y="45" width="1" height="1" fill="#323D5A" />
<rect x="34" y="45" width="1" height="1" fill="#323D5A" />
<rect x="35" y="45" width="1" height="1" fill="#323D5A" />
<rect x="36" y="45" width="1" height="1" fill="#349E89" />
<rect x="37" y="45" width="1" height="1" fill="#349E89" />
<rect x="38" y="45" width="1" height="1" fill="#53CB7B" />
<rect x="39" y="45" width="1" height="1" fill="#53CB7B" />
<rect x="40" y="45" width="1" height="1" fill="#323D5A" />
<rect x="41" y="45" width="1" height="1" fill="#323D5A" />
<rect x="20" y="46" width="1" height="1" fill="#323D5A" />
<rect x="21" y="46" width="1" height="1" fill="#323D5A" />
<rect x="22" y="46" width="1" height="1" fill="#53CB7B" />
<rect x="23" y="46" width="1" height="1" fill="#53CB7B" />
<rect x="24" y="46" width="1" height="1" fill="#349E89" />
<rect x="25" y="46" width="1" height="1" fill="#349E89" />
<rect x="26" y="46" width="1" height="1" fill="#323D5A" />
<rect x="27" y="46" width="1" height="1" fill="#323D5A" />
<rect x="28" y="46" width="1" height="1" fill="#323D5A" />
<rect x="29" y="46" width="1" height="1" fill="#323D5A" />
<rect x="30" y="46" width="1" height="1" fill="#323D5A" />
<rect x="31" y="46" width="1" height="1" fill="#323D5A" />
<rect x="32" y="46" width="1" height="1" fill="#323D5A" />
<rect x="33" y="46" width="1" height="1" fill="#323D5A" />
<rect x="34" y="46" width="1" height="1" fill="#323D5A" />
<rect x="35" y="46" width="1" height="1" fill="#323D5A" />
<rect x="36" y="46" width="1" height="1" fill="#323D5A" />
<rect x="37" y="46" width="1" height="1" fill="#323D5A" />
<rect x="38" y="46" width="1" height="1" fill="#349E89" />
<rect x="39" y="46" width="1" height="1" fill="#349E89" />
<rect x="40" y="46" width="1" height="1" fill="#53CB7B" />
<rect x="41" y="46" width="1" height="1" fill="#53CB7B" />
<rect x="42" y="46" width="1" height="1" fill="#323D5A" />
<rect x="43" y="46" width="1" height="1" fill="#323D5A" />
<rect x="20" y="47" width="1" height="1" fill="#323D5A" />
<rect x="21" y="47" width="1" height="1" fill="#323D5A" />
<rect x="22" y="47" width="1" height="1" fill="#53CB7B" />
<rect x="23" y="47" width="1" height="1" fill="#53CB7B" />
<rect x="24" y="47" width="1" height="1" fill="#349E89" />
<rect x="25" y="47" width="1" height="1" fill="#349E89" />
<rect x="26" y="47" width="1" height="1" fill="#323D5A" />
<rect x="27" y="47" width="1" height="1" fill="#323D5A" />
<rect x="28" y="47" width="1" height="1" fill="#323D5A" />
<rect x="29" y="47" width="1" height="1" fill="#323D5A" />
<rect x="30" y="47" width="1" height="1" fill="#323D5A" />
<rect x="31" y="47" width="1" height="1" fill="#323D5A" />
<rect x="32" y="47" width="1" height="1" fill="#323D5A" />
<rect x="33" y="47" width="1" height="1" fill="#323D5A" />
<rect x="34" y="47" width="1" height="1" fill="#323D5A" />
<rect x="35" y="47" width="1" height="1" fill="#323D5A" />
<rect x="36" y="47" width="1" height="1" fill="#323D5A" />
<rect x="37" y="47" width="1" height="1" fill="#323D5A" />
<rect x="38" y="47" width="1" height="1" fill="#349E89" />
<rect x="39" y="47" width="1" height="1" fill="#349E89" />
<rect x="40" y="47" width="1" height="1" fill="#53CB7B" />
<rect x="41" y="47" width="1" height="1" fill="#53CB7B" />
<rect x="42" y="47" width="1" height="1" fill="#323D5A" />
<rect x="43" y="47" width="1" height="1" fill="#323D5A" />
<rect x="20" y="48" width="1" height="1" fill="#323D5A" />
<rect x="21" y="48" width="1" height="1" fill="#323D5A" />
<rect x="22" y="48" width="1" height="1" fill="#53CB7B" />
<rect x="23" y="48" width="1" height="1" fill="#53CB7B" />
<rect x="24" y="48" width="1" height="1" fill="#323D5A" />
<rect x="25" y="48" width="1" height="1" fill="#323D5A" />
<rect x="26" y="48" width="1" height="1" fill="#323D5A" />
<rect x="27" y="48" width="1" height="1" fill="#323D5A" />
<rect x="28" y="48" width="1" height="1" fill="#323D5A" />
<rect x="29" y="48" width="1" height="1" fill="#323D5A" />
<rect x="30" y="48" width="1" height="1" fill="#323D5A" />
<rect x="31" y="48" width="1" height="1" fill="#323D5A" />
<rect x="32" y="48" width="1" height="1" fill="#323D5A" />
<rect x="33" y="48" width="1" height="1" fill="#323D5A" />
<rect x="34" y="48" width="1" height="1" fill="#323D5A" />
<rect x="35" y="48" width="1" height="1" fill="#323D5A" />
<rect x="36" y="48" width="1" height="1" fill="#323D5A" />
<rect x="37" y="48" width="1" height="1" fill="#323D5A" />
<rect x="38" y="48" width="1" height="1" fill="#323D5A" />
<rect x="39" y="48" width="1" height="1" fill="#323D5A" />
<rect x="40" y="48" width="1" height="1" fill="#53CB7B" />
<rect x="41" y="48" width="1" height="1" fill="#53CB7B" />
<rect x="42" y="48" width="1" height="1" fill="#323D5A" />
<rect x="43" y="48" width="1" height="1" fill="#323D5A" />
<rect x="20" y="49" width="1" height="1" fill="#323D5A" />
<rect x="21" y="49" width="1" height="1" fill="#323D5A" />
<rect x="22" y="49" width="1" height="1" fill="#53CB7B" />
<rect x="23" y="49" width="1" height="1" fill="#53CB7B" />
<rect x="24" y="49" width="1" height="1" fill="#323D5A" />
<rect x="25" y="49" width="1" height="1" fill="#323D5A" />
<rect x="26" y="49" width="1" height="1" fill="#323D5A" />
<rect x="27" y="49" width="1" height="1" fill="#323D5A" />
<rect x="28" y="49" width="1" height="1" fill="#323D5A" />
<rect x="29" y="49" width="1" height="1" fill="#323D5A" />
<rect x="30" y="49" width="1" height="1" fill="#323D5A" />
<rect x="31" y="49" width="1" height="1" fill="#323D5A" />
<rect x="32" y="49" width="1" height="1" fill="#323D5A" />
<rect x="33" y="49" width="1" height="1" fill="#323D5A" />
<rect x="34" y="49" width="1" height="1" fill="#323D5A" />
<rect x="35" y="49" width="1" height="1" fill="#323D5A" />
<rect x="36" y="49" width="1" height="1" fill="#323D5A" />
<rect x="37" y="49" width="1" height="1" fill="#323D5A" />
<rect x="38" y="49" width="1" height="1" fill="#323D5A" />
<rect x="39" y="49" width="1" height="1" fill="#323D5A" />
<rect x="40" y="49" width="1" height="1" fill="#53CB7B" />
<rect x="41" y="49" width="1" height="1" fill="#53CB7B" />
<rect x="42" y="49" width="1" height="1" fill="#323D5A" />
<rect x="43" y="49" width="1" height="1" fill="#323D5A" />
<rect x="20" y="50" width="1" height="1" fill="#323D5A" />
<rect x="21" y="50" width="1" height="1" fill="#323D5A" />
<rect x="22" y="50" width="1" height="1" fill="#53CB7B" />
<rect x="23" y="50" width="1" height="1" fill="#53CB7B" />
<rect x="24" y="50" width="1" height="1" fill="#323D5A" />
<rect x="25" y="50" width="1" height="1" fill="#323D5A" />
<rect x="26" y="50" width="1" height="1" fill="#323D5A" />
<rect x="27" y="50" width="1" height="1" fill="#323D5A" />
<rect x="28" y="50" width="1" height="1" fill="#323D5A" />
<rect x="29" y="50" width="1" height="1" fill="#323D5A" />
<rect x="30" y="50" width="1" height="1" fill="#323D5A" />
<rect x="31" y="50" width="1" height="1" fill="#323D5A" />
<rect x="32" y="50" width="1" height="1" fill="#323D5A" />
<rect x="33" y="50" width="1" height="1" fill="#323D5A" />
<rect x="34" y="50" width="1" height="1" fill="#323D5A" />
<rect x="35" y="50" width="1" height="1" fill="#323D5A" />
<rect x="36" y="50" width="1" height="1" fill="#323D5A" />
<rect x="37" y="50" width="1" height="1" fill="#323D5A" />
<rect x="38" y="50" width="1" height="1" fill="#323D5A" />
<rect x="39" y="50" width="1" height="1" fill="#323D5A" />
<rect x="40" y="50" width="1" height="1" fill="#53CB7B" />
<rect x="41" y="50" width="1" height="1" fill="#53CB7B" />
<rect x="42" y="50" width="1" height="1" fill="#323D5A" />
<rect x="43" y="50" width="1" height="1" fill="#323D5A" />
<rect x="20" y="51" width="1" height="1" fill="#323D5A" />
<rect x="21" y="51" width="1" height="1" fill="#323D5A" />
<rect x="22" y="51" width="1" height="1" fill="#53CB7B" />
<rect x="23" y="51" width="1" height="1" fill="#53CB7B" />
<rect x="24" y="51" width="1" height="1" fill="#323D5A" />
<rect x="25" y="51" width="1" height="1" fill="#323D5A" />
<rect x="26" y="51" width="1" height="1" fill="#323D5A" />
<rect x="27" y="51" width="1" height="1" fill="#323D5A" />
<rect x="28" y="51" width="1" height="1" fill="#323D5A" />
<rect x="29" y="51" width="1" height="1" fill="#323D5A" />
<rect x="30" y="51" width="1" height="1" fill="#323D5A" />
<rect x="31" y="51" width="1" height="1" fill="#323D5A" />
<rect x="32" y="51" width="1" height="1" fill="#323D5A" />
<rect x="33" y="51" width="1" height="1" fill="#323D5A" />
<rect x="34" y="51" width="1" height="1" fill="#323D5A" />
<rect x="35" y="51" width="1" height="1" fill="#323D5A" />
<rect x="36" y="51" width="1" height="1" fill="#323D5A" />
<rect x="37" y="51" width="1" height="1" fill="#323D5A" />
<rect x="38" y="51" width="1" height="1" fill="#323D5A" />
<rect x="39" y="51" width="1" height="1" fill="#323D5A" />
<rect x="40" y="51" width="1" height="1" fill="#53CB7B" />
<rect x="41" y="51" width="1" height="1" fill="#53CB7B" />
<rect x="42" y="51" width="1" height="1" fill="#323D5A" />
<rect x="43" y="51" width="1" height="1" fill="#323D5A" />
<rect x="20" y="52" width="1" height="1" fill="#323D5A" />
<rect x="21" y="52" width="1" height="1" fill="#323D5A" />
<rect x="22" y="52" width="1" height="1" fill="#53CB7B" />
<rect x="23" y="52" width="1" height="1" fill="#53CB7B" />
<rect x="24" y="52" width="1" height="1" fill="#53CB7B" />
<rect x="25" y="52" width="1" height="1" fill="#53CB7B" />
<rect x="26" y="52" width="1" height="1" fill="#349E89" />
<rect x="27" y="52" width="1" height="1" fill="#349E89" />
<rect x="28" y="52" width="1" height="1" fill="#323D5A" />
<rect x="29" y="52" width="1" height="1" fill="#323D5A" />
<rect x="30" y="52" width="1" height="1" fill="#323D5A" />
<rect x="31" y="52" width="1" height="1" fill="#323D5A" />
<rect x="32" y="52" width="1" height="1" fill="#323D5A" />
<rect x="33" y="52" width="1" height="1" fill="#323D5A" />
<rect x="34" y="52" width="1" height="1" fill="#323D5A" />
<rect x="35" y="52" width="1" height="1" fill="#323D5A" />
<rect x="36" y="52" width="1" height="1" fill="#349E89" />
<rect x="37" y="52" width="1" height="1" fill="#349E89" />
<rect x="38" y="52" width="1" height="1" fill="#53CB7B" />
<rect x="39" y="52" width="1" height="1" fill="#53CB7B" />
<rect x="40" y="52" width="1" height="1" fill="#53CB7B" />
<rect x="41" y="52" width="1" height="1" fill="#53CB7B" />
<rect x="42" y="52" width="1" height="1" fill="#323D5A" />
<rect x="43" y="52" width="1" height="1" fill="#323D5A" />
<rect x="20" y="53" width="1" height="1" fill="#323D5A" />
<rect x="21" y="53" width="1" height="1" fill="#323D5A" />
<rect x="22" y="53" width="1" height="1" fill="#53CB7B" />
<rect x="23" y="53" width="1" height="1" fill="#53CB7B" />
<rect x="24" y="53" width="1" height="1" fill="#53CB7B" />
<rect x="25" y="53" width="1" height="1" fill="#53CB7B" />
<rect x="26" y="53" width="1" height="1" fill="#349E89" />
<rect x="27" y="53" width="1" height="1" fill="#349E89" />
<rect x="28" y="53" width="1" height="1" fill="#323D5A" />
<rect x="29" y="53" width="1" height="1" fill="#323D5A" />
<rect x="30" y="53" width="1" height="1" fill="#323D5A" />
<rect x="31" y="53" width="1" height="1" fill="#323D5A" />
<rect x="32" y="53" width="1" height="1" fill="#323D5A" />
<rect x="33" y="53" width="1" height="1" fill="#323D5A" />
<rect x="34" y="53" width="1" height="1" fill="#323D5A" />
<rect x="35" y="53" width="1" height="1" fill="#323D5A" />
<rect x="36" y="53" width="1" height="1" fill="#349E89" />
<rect x="37" y="53" width="1" height="1" fill="#349E89" />
<rect x="38" y="53" width="1" height="1" fill="#53CB7B" />
<rect x="39" y="53" width="1" height="1" fill="#53CB7B" />
<rect x="40" y="53" width="1" height="1" fill="#53CB7B" />
<rect x="41" y="53" width="1" height="1" fill="#53CB7B" />
<rect x="42" y="53" width="1" height="1" fill="#323D5A" />
<rect x="43" y="53" width="1" height="1" fill="#323D5A" />
<rect x="20" y="54" width="1" height="1" fill="#323D5A" />
<rect x="21" y="54" width="1" height="1" fill="#323D5A" />
<rect x="22" y="54" width="1" height="1" fill="#53CB7B" />
<rect x="23" y="54" width="1" height="1" fill="#53CB7B" />
<rect x="24" y="54" width="1" height="1" fill="#53CB7B" />
<rect x="25" y="54" width="1" height="1" fill="#53CB7B" />
<rect x="26" y="54" width="1" height="1" fill="#53CB7B" />
<rect x="27" y="54" width="1" height="1" fill="#53CB7B" />
<rect x="28" y="54" width="1" height="1" fill="#53CB7B" />
<rect x="29" y="54" width="1" height="1" fill="#53CB7B" />
<rect x="30" y="54" width="1" height="1" fill="#53CB7B" />
<rect x="31" y="54" width="1" height="1" fill="#53CB7B" />
<rect x="32" y="54" width="1" height="1" fill="#53CB7B" />
<rect x="33" y="54" width="1" height="1" fill="#53CB7B" />
<rect x="34" y="54" width="1" height="1" fill="#53CB7B" />
<rect x="35" y="54" width="1" height="1" fill="#53CB7B" />
<rect x="36" y="54" width="1" height="1" fill="#53CB7B" />
<rect x="37" y="54" width="1" height="1" fill="#53CB7B" />
<rect x="38" y="54" width="1" height="1" fill="#53CB7B" />
<rect x="39" y="54" width="1" height="1" fill="#53CB7B" />
<rect x="40" y="54" width="1" height="1" fill="#53CB7B" />
<rect x="41" y="54" width="1" height="1" fill="#53CB7B" />
<rect x="42" y="54" width="1" height="1" fill="#323D5A" />
<rect x="43" y="54" width="1" height="1" fill="#323D5A" />
<rect x="20" y="55" width="1" height="1" fill="#323D5A" />
<rect x="21" y="55" width="1" height="1" fill="#323D5A" />
<rect x="22" y="55" width="1" height="1" fill="#53CB7B" />
<rect x="23" y="55" width="1" height="1" fill="#53CB7B" />
<rect x="24" y="55" width="1" height="1" fill="#53CB7B" />
<rect x="25" y="55" width="1" height="1" fill="#53CB7B" />
<rect x="26" y="55" width="1" height="1" fill="#53CB7B" />
<rect x="27" y="55" width="1" height="1" fill="#53CB7B" />
<rect x="28" y="55" width="1" height="1" fill="#53CB7B" />
<rect x="29" y="55" width="1" height="1" fill="#53CB7B" />
<rect x="30" y="55" width="1" height="1" fill="#53CB7B" />
<rect x="31" y="55" width="1" height="1" fill="#53CB7B" />
<rect x="32" y="55" width="1" height="1" fill="#53CB7B" />
<rect x="33" y="55" width="1" height="1" fill="#53CB7B" />
<rect x="34" y="55" width="1" height="1" fill="#53CB7B" />
<rect x="35" y="55" width="1" height="1" fill="#53CB7B" />
<rect x="36" y="55" width="1" height="1" fill="#53CB7B" />
<rect x="37" y="55" width="1" height="1" fill="#53CB7B" />
<rect x="38" y="55" width="1" height="1" fill="#53CB7B" />
<rect x="39" y="55" width="1" height="1" fill="#53CB7B" />
<rect x="40" y="55" width="1" height="1" fill="#53CB7B" />
<rect x="41" y="55" width="1" height="1" fill="#53CB7B" />
<rect x="42" y="55" width="1" height="1" fill="#323D5A" />
<rect x="43" y="55" width="1" height="1" fill="#323D5A" />
<rect x="18" y="56" width="1" height="1" fill="#323D5A" />
<rect x="19" y="56" width="1" height="1" fill="#323D5A" />
<rect x="20" y="56" width="1" height="1" fill="#349E89" />
<rect x="21" y="56" width="1" height="1" fill="#349E89" />
<rect x="22" y="56" width="1" height="1" fill="#53CB7B" />
<rect x="23" y="56" width="1" height="1" fill="#53CB7B" />
<rect x="24" y="56" width="1" height="1" fill="#53CB7B" />
<rect x="25" y="56" width="1" height="1" fill="#53CB7B" />
<rect x="26" y="56" width="1" height="1" fill="#53CB7B" />
<rect x="27" y="56" width="1" height="1" fill="#53CB7B" />
<rect x="28" y="56" width="1" height="1" fill="#53CB7B" />
<rect x="29" y="56" width="1" height="1" fill="#53CB7B" />
<rect x="30" y="56" width="1" height="1" fill="#53CB7B" />
<rect x="31" y="56" width="1" height="1" fill="#53CB7B" />
<rect x="32" y="56" width="1" height="1" fill="#53CB7B" />
<rect x="33" y="56" width="1" height="1" fill="#53CB7B" />
<rect x="34" y="56" width="1" height="1" fill="#53CB7B" />
<rect x="35" y="56" width="1" height="1" fill="#53CB7B" />
<rect x="36" y="56" width="1" height="1" fill="#53CB7B" />
<rect x="37" y="56" width="1" height="1" fill="#53CB7B" />
<rect x="38" y="56" width="1" height="1" fill="#53CB7B" />
<rect x="39" y="56" width="1" height="1" fill="#53CB7B" />
<rect x="40" y="56" width="1" height="1" fill="#53CB7B" />
<rect x="41" y="56" width="1" height="1" fill="#53CB7B" />
<rect x="42" y="56" width="1" height="1" fill="#349E89" />
<rect x="43" y="56" width="1" height="1" fill="#349E89" />
<rect x="44" y="56" width="1" height="1" fill="#323D5A" />
<rect x="45" y="56" width="1" height="1" fill="#323D5A" />
<rect x="18" y="57" width="1" height="1" fill="#323D5A" />
<rect x="19" y="57" width="1" height="1" fill="#323D5A" />
<rect x="20" y="57" width="1" height="1" fill="#349E89" />
<rect x="21" y="57" width="1" height="1" fill="#349E89" />
<rect x="22" y="57" width="1" height="1" fill="#53CB7B" />
<rect x="23" y="57" width="1" height="1" fill="#53CB7B" />
<rect x="24" y="57" width="1" height="1" fill="#53CB7B" />
<rect x="25" y="57" width="1" height="1" fill="#53CB7B" />
<rect x="26" y="57" width="1" height="1" fill="#53CB7B" />
<rect x="27" y="57" width="1" height="1" fill="#53CB7B" />
<rect x="28" y="57" width="1" height="1" fill="#53CB7B" />
<rect x="29" y="57" width="1" height="1" fill="#53CB7B" />
<rect x="30" y="57" width="1" height="1" fill="#53CB7B" />
<rect x="31" y="57" width="1" height="1" fill="#53CB7B" />
<rect x="32" y="57" width="1" height="1" fill="#53CB7B" />
<rect x="33" y="57" width="1" height="1" fill="#53CB7B" />
<rect x="34" y="57" width="1" height="1" fill="#53CB7B" />
<rect x="35" y="57" width="1" height="1" fill="#53CB7B" />
<rect x="36" y="57" width="1" height="1" fill="#53CB7B" />
<rect x="37" y="57" width="1" height="1" fill="#53CB7B" />
<rect x="38" y="57" width="1" height="1" fill="#53CB7B" />
<rect x="39" y="57" width="1" height="1" fill="#53CB7B" />
<rect x="40" y="57" width="1" height="1" fill="#53CB7B" />
<rect x="41" y="57" width="1" height="1" fill="#53CB7B" />
<rect x="42" y="57" width="1" height="1" fill="#349E89" />
<rect x="43" y="57" width="1" height="1" fill="#349E89" />
<rect x="44" y="57" width="1" height="1" fill="#323D5A" />
<rect x="45" y="57" width="1" height="1" fill="#323D5A" />
<rect x="18" y="58" width="1" height="1" fill="#323D5A" />
<rect x="19" y="58" width="1" height="1" fill="#323D5A" />
<rect x="20" y="58" width="1" height="1" fill="#349E89" />
<rect x="21" y="58" width="1" height="1" fill="#349E89" />
<rect x="22" y="58" width="1" height="1" fill="#53CB7B" />
<rect x="23" y="58" width="1" height="1" fill="#53CB7B" />
<rect x="24" y="58" width="1" height="1" fill="#53CB7B" />
<rect x="25" y="58" width="1" height="1" fill="#53CB7B" />
<rect x="26" y="58" width="1" height="1" fill="#53CB7B" />
<rect x="27" y="58" width="1" height="1" fill="#53CB7B" />
<rect x="28" y="58" width="1" height="1" fill="#53CB7B" />
<rect x="29" y="58" width="1" height="1" fill="#53CB7B" />
<rect x="30" y="58" width="1" height="1" fill="#53CB7B" />
<rect x="31" y="58" width="1" height="1" fill="#53CB7B" />
<rect x="32" y="58" width="1" height="1" fill="#53CB7B" />
<rect x="33" y="58" width="1" height="1" fill="#53CB7B" />
<rect x="34" y="58" width="1" height="1" fill="#53CB7B" />
<rect x="35" y="58" width="1" height="1" fill="#53CB7B" />
<rect x="36" y="58" width="1" height="1" fill="#53CB7B" />
<rect x="37" y="58" width="1" height="1" fill="#53CB7B" />
<rect x="38" y="58" width="1" height="1" fill="#53CB7B" />
<rect x="39" y="58" width="1" height="1" fill="#53CB7B" />
<rect x="40" y="58" width="1" height="1" fill="#53CB7B" />
<rect x="41" y="58" width="1" height="1" fill="#53CB7B" />
<rect x="42" y="58" width="1" height="1" fill="#349E89" />
<rect x="43" y="58" width="1" height="1" fill="#349E89" />
<rect x="44" y="58" width="1" height="1" fill="#323D5A" />
<rect x="45" y="58" width="1" height="1" fill="#323D5A" />
<rect x="18" y="59" width="1" height="1" fill="#323D5A" />
<rect x="19" y="59" width="1" height="1" fill="#323D5A" />
<rect x="20" y="59" width="1" height="1" fill="#349E89" />
<rect x="21" y="59" width="1" height="1" fill="#349E89" />
<rect x="22" y="59" width="1" height="1" fill="#53CB7B" />
<rect x="23" y="59" width="1" height="1" fill="#53CB7B" />
<rect x="24" y="59" width="1" height="1" fill="#53CB7B" />
<rect x="25" y="59" width="1" height="1" fill="#53CB7B" />
<rect x="26" y="59" width="1" height="1" fill="#53CB7B" />
<rect x="27" y="59" width="1" height="1" fill="#53CB7B" />
<rect x="28" y="59" width="1" height="1" fill="#53CB7B" />
<rect x="29" y="59" width="1" height="1" fill="#53CB7B" />
<rect x="30" y="59" width="1" height="1" fill="#53CB7B" />
<rect x="31" y="59" width="1" height="1" fill="#53CB7B" />
<rect x="32" y="59" width="1" height="1" fill="#53CB7B" />
<rect x="33" y="59" width="1" height="1" fill="#53CB7B" />
<rect x="34" y="59" width="1" height="1" fill="#53CB7B" />
<rect x="35" y="59" width="1" height="1" fill="#53CB7B" />
<rect x="36" y="59" width="1" height="1" fill="#53CB7B" />
<rect x="37" y="59" width="1" height="1" fill="#53CB7B" />
<rect x="38" y="59" width="1" height="1" fill="#53CB7B" />
<rect x="39" y="59" width="1" height="1" fill="#53CB7B" />
<rect x="40" y="59" width="1" height="1" fill="#53CB7B" />
<rect x="41" y="59" width="1" height="1" fill="#53CB7B" />
<rect x="42" y="59" width="1" height="1" fill="#349E89" />
<rect x="43" y="59" width="1" height="1" fill="#349E89" />
<rect x="44" y="59" width="1" height="1" fill="#323D5A" />
<rect x="45" y="59" width="1" height="1" fill="#323D5A" />
<rect x="18" y="60" width="1" height="1" fill="#323D5A" />
<rect x="19" y="60" width="1" height="1" fill="#323D5A" />
<rect x="20" y="60" width="1" height="1" fill="#53CB7B" />
<rect x="21" y="60" width="1" height="1" fill="#53CB7B" />
<rect x="22" y="60" width="1" height="1" fill="#53CB7B" />
<rect x="23" y="60" width="1" height="1" fill="#53CB7B" />
<rect x="24" y="60" width="1" height="1" fill="#53CB7B" />
<rect x="25" y="60" width="1" height="1" fill="#53CB7B" />
<rect x="26" y="60" width="1" height="1" fill="#53CB7B" />
<rect x="27" y="60" width="1" height="1" fill="#53CB7B" />
<rect x="28" y="60" width="1" height="1" fill="#53CB7B" />
<rect x="29" y="60" width="1" height="1" fill="#53CB7B" />
<rect x="30" y="60" width="1" height="1" fill="#53CB7B" />
<rect x="31" y="60" width="1" height="1" fill="#53CB7B" />
<rect x="32" y="60" width="1" height="1" fill="#53CB7B" />
<rect x="33" y="60" width="1" height="1" fill="#53CB7B" />
<rect x="34" y="60" width="1" height="1" fill="#53CB7B" />
<rect x="35" y="60" width="1" height="1" fill="#53CB7B" />
<rect x="36" y="60" width="1" height="1" fill="#53CB7B" />
<rect x="37" y="60" width="1" height="1" fill="#53CB7B" />
<rect x="38" y="60" width="1" height="1" fill="#53CB7B" />
<rect x="39" y="60" width="1" height="1" fill="#53CB7B" />
<rect x="40" y="60" width="1" height="1" fill="#53CB7B" />
<rect x="41" y="60" width="1" height="1" fill="#53CB7B" />
<rect x="42" y="60" width="1" height="1" fill="#53CB7B" />
<rect x="43" y="60" width="1" height="1" fill="#53CB7B" />
<rect x="44" y="60" width="1" height="1" fill="#323D5A" />
<rect x="45" y="60" width="1" height="1" fill="#323D5A" />
<rect x="18" y="61" width="1" height="1" fill="#323D5A" />
<rect x="19" y="61" width="1" height="1" fill="#323D5A" />
<rect x="20" y="61" width="1" height="1" fill="#53CB7B" />
<rect x="21" y="61" width="1" height="1" fill="#53CB7B" />
<rect x="22" y="61" width="1" height="1" fill="#53CB7B" />
<rect x="23" y="61" width="1" height="1" fill="#53CB7B" />
<rect x="24" y="61" width="1" height="1" fill="#53CB7B" />
<rect x="25" y="61" width="1" height="1" fill="#53CB7B" />
<rect x="26" y="61" width="1" height="1" fill="#53CB7B" />
<rect x="27" y="61" width="1" height="1" fill="#53CB7B" />
<rect x="28" y="61" width="1" height="1" fill="#53CB7B" />
<rect x="29" y="61" width="1" height="1" fill="#53CB7B" />
<rect x="30" y="61" width="1" height="1" fill="#53CB7B" />
<rect x="31" y="61" width="1" height="1" fill="#53CB7B" />
<rect x="32" y="61" width="1" height="1" fill="#53CB7B" />
<rect x="33" y="61" width="1" height="1" fill="#53CB7B" />
<rect x="34" y="61" width="1" height="1" fill="#53CB7B" />
<rect x="35" y="61" width="1" height="1" fill="#53CB7B" />
<rect x="36" y="61" width="1" height="1" fill="#53CB7B" />
<rect x="37" y="61" width="1" height="1" fill="#53CB7B" />
<rect x="38" y="61" width="1" height="1" fill="#53CB7B" />
<rect x="39" y="61" width="1" height="1" fill="#53CB7B" />
<rect x="40" y="61" width="1" height="1" fill="#53CB7B" />
<rect x="41" y="61" width="1" height="1" fill="#53CB7B" />
<rect x="42" y="61" width="1" height="1" fill="#53CB7B" />
<rect x="43" y="61" width="1" height="1" fill="#53CB7B" />
<rect x="44" y="61" width="1" height="1" fill="#323D5A" />
<rect x="45" y="61" width="1" height="1" fill="#323D5A" />
<rect x="18" y="62" width="1" height="1" fill="#323D5A" />
<rect x="19" y="62" width="1" height="1" fill="#323D5A" />
<rect x="20" y="62" width="1" height="1" fill="#53CB7B" />
<rect x="21" y="62" width="1" height="1" fill="#53CB7B" />
<rect x="22" y="62" width="1" height="1" fill="#53CB7B" />
<rect x="23" y="62" width="1" height="1" fill="#53CB7B" />
<rect x="24" y="62" width="1" height="1" fill="#53CB7B" />
<rect x="25" y="62" width="1" height="1" fill="#53CB7B" />
<rect x="26" y="62" width="1" height="1" fill="#53CB7B" />
<rect x="27" y="62" width="1" height="1" fill="#53CB7B" />
<rect x="28" y="62" width="1" height="1" fill="#53CB7B" />
<rect x="29" y="62" width="1" height="1" fill="#53CB7B" />
<rect x="30" y="62" width="1" height="1" fill="#53CB7B" />
<rect x="31" y="62" width="1" height="1" fill="#53CB7B" />
<rect x="32" y="62" width="1" height="1" fill="#53CB7B" />
<rect x="33" y="62" width="1" height="1" fill="#53CB7B" />
<rect x="34" y="62" width="1" height="1" fill="#53CB7B" />
<rect x="35" y="62" width="1" height="1" fill="#53CB7B" />
<rect x="36" y="62" width="1" height="1" fill="#53CB7B" />
<rect x="37" y="62" width="1" height="1" fill="#53CB7B" />
<rect x="38" y="62" width="1" height="1" fill="#53CB7B" />
<rect x="39" y="62" width="1" height="1" fill="#53CB7B" />
<rect x="40" y="62" width="1" height="1" fill="#53CB7B" />
<rect x="41" y="62" width="1" height="1" fill="#53CB7B" />
<rect x="42" y="62" width="1" height="1" fill="#53CB7B" />
<rect x="43" y="62" width="1" height="1" fill="#53CB7B" />
<rect x="44" y="62" width="1" height="1" fill="#323D5A" />
<rect x="45" y="62" width="1" height="1" fill="#323D5A" />
<rect x="18" y="63" width="1" height="1" fill="#323D5A" />
<rect x="19" y="63" width="1" height="1" fill="#323D5A" />
<rect x="20" y="63" width="1" height="1" fill="#53CB7B" />
<rect x="21" y="63" width="1" height="1" fill="#53CB7B" />
<rect x="22" y="63" width="1" height="1" fill="#53CB7B" />
<rect x="23" y="63" width="1" height="1" fill="#53CB7B" />
<rect x="24" y="63" width="1" height="1" fill="#53CB7B" />
<rect x="25" y="63" width="1" height="1" fill="#53CB7B" />
<rect x="26" y="63" width="1" height="1" fill="#53CB7B" />
<rect x="27" y="63" width="1" height="1" fill="#53CB7B" />
<rect x="28" y="63" width="1" height="1" fill="#53CB7B" />
<rect x="29" y="63" width="1" height="1" fill="#53CB7B" />
<rect x="30" y="63" width="1" height="1" fill="#53CB7B" />
<rect x="31" y="63" width="1" height="1" fill="#53CB7B" />
<rect x="32" y="63" width="1" height="1" fill="#53CB7B" />
<rect x="33" y="63" width="1" height="1" fill="#53CB7B" />
<rect x="34" y="63" width="1" height="1" fill="#53CB7B" />
<rect x="35" y="63" width="1" height="1" fill="#53CB7B" />
<rect x="36" y="63" width="1" height="1" fill="#53CB7B" />
<rect x="37" y="63" width="1" height="1" fill="#53CB7B" />
<rect x="38" y="63" width="1" height="1" fill="#53CB7B" />
<rect x="39" y="63" width="1" height="1" fill="#53CB7B" />
<rect x="40" y="63" width="1" height="1" fill="#53CB7B" />
<rect x="41" y="63" width="1" height="1" fill="#53CB7B" />
<rect x="42" y="63" width="1" height="1" fill="#53CB7B" />
<rect x="43" y="63" width="1" height="1" fill="#53CB7B" />
<rect x="44" y="63" width="1" height="1" fill="#323D5A" />
<rect x="45" y="63" width="1" height="1" fill="#323D5A" />
</svg>