<?xml version="1.0" encoding="UTF-8" ?>
<svg version="1.1" width="64" height="64" xmlns="http://www.w3.org/2000/svg" shape-rendering="crispEdges">
<rect x="18" y="0" width="1" height="1" fill="#323D5A" />
<rect x="19" y="0" width="1" height="1" fill="#323D5A" />
<rect x="20" y="0" width="1" height="1" fill="#349E89" />
<rect x="21" y="0" width="1" height="1" fill="#349E89" />
<rect x="22" y="0" width="1" height="1" fill="#53CB7B" />
<rect x="23" y="0" width="1" height="1" fill="#53CB7B" />
<rect x="24" y="0" width="1" height="1" fill="#53CB7B" />
<rect x="25" y="0" width="1" height="1" fill="#53CB7B" />
<rect x="26" y="0" width="1" height="1" fill="#53CB7B" />
<rect x="27" y="0" width="1" height="1" fill="#53CB7B" />
<rect x="28" y="0" width="1" height="1" fill="#53CB7B" />
<rect x="29" y="0" width="1" height="1" fill="#53CB7B" />
<rect x="30" y="0" width="1" height="1" fill="#53CB7B" />
<rect x="31" y="0" width="1" height="1" fill="#53CB7B" />
<rect x="32" y="0" width="1" height="1" fill="#53CB7B" />
<rect x="33" y="0" width="1" height="1" fill="#53CB7B" />
<rect x="34" y="0" width="1" height="1" fill="#53CB7B" />
<rect x="35" y="0" width="1" height="1" fill="#53CB7B" />
<rect x="36" y="0" width="1" height="1" fill="#53CB7B" />
<rect x="37" y="0" width="1" height="1" fill="#53CB7B" />
<rect x="38" y="0" width="1" height="1" fill="#53CB7B" />
<rect x="39" y="0" width="1" height="1" fill="#53CB7B" />
<rect x="40" y="0" width="1" height="1" fill="#53CB7B" />
<rect x="41" y="0" width="1" height="1" fill="#53CB7B" />
<rect x="42" y="0" width="1" height="1" fill="#349E89" />
<rect x="43" y="0" width="1" height="1" fill="#349E89" />
<rect x="44" y="0" width="1" height="1" fill="#323D5A" />
<rect x="45" y="0" width="1" height="1" fill="#323D5A" />
<rect x="18" y="1" width="1" height="1" fill="#323D5A" />
<rect x="19" y="1" width="1" height="1" fill="#323D5A" />
<rect x="20" y="1" width="1" height="1" fill="#349E89" />
<rect x="21" y="1" width="1" height="1" fill="#349E89" />
<rect x="22" y="1" width="1" height="1" fill="#53CB7B" />
<rect x="23" y="1" width="1" height="1" fill="#53CB7B" />
<rect x="24" y="1" width="1" height="1" fill="#53CB7B" />
<rect x="25" y="1" width="1" height="1" fill="#53CB7B" />
<rect x="26" y="1" width="1" height="1" fill="#53CB7B" />
<rect x="27" y="1" width="1" height="1" fill="#53CB7B" />
<rect x="28" y="1" width="1" height="1" fill="#53CB7B" />
<rect x="29" y="1" width="1" height="1" fill="#53CB7B" />
<rect x="30" y="1" width="1" height="1" fill="#53CB7B" />
<rect x="31" y="1" width="1" height="1" fill="#53CB7B" />
<rect x="32" y="1" width="1" height="1" fill="#53CB7B" />
<rect x="33" y="1" width="1" height="1" fill="#53CB7B" />
<rect x="34" y="1" width="1" height="1" fill="#53CB7B" />
<rect x="35" y="1" width="1" height="1" fill="#53CB7B" />
<rect x="36" y="1" width="1" height="1" fill="#53CB7B" />
<rect x="37" y="1" width="1" height="1" fill="#53CB7B" />
<rect x="38" y="1" width="1" height="1" fill="#53CB7B" />
<rect x="39" y="1" width="1" height="1" fill="#53CB7B" />
<rect x="40" y="1" width="1" height="1" fill="#53CB7B" />
<rect x="41" y="1" width="1" height="1" fill="#53CB7B" />
<rect x="42" y="1" width="1" height="1" fill="#349E89" />
<rect x="43" y="1" width="1" height="1" fill="#349E89" />
<rect x="44" y="1" width="1" height="1" fill="#323D5A" />
<rect x="45" y="1" width="1" height="1" fill="#323D5A" />
<rect x="20" y="2" width="1" height="1" fill="#323D5A" />
<rect x="21" y="2" width="1" height="1" fill="#323D5A" />
<rect x="22" y="2" width="1" height="1" fill="#349E89" />
<rect x="23" y="2" width="1" height="1" fill="#349E89" />
<rect x="24" y="2" width="1" height="1" fill="#53CB7B" />
<rect x="25" y="2" width="1" height="1" fill="#53CB7B" />
<rect x="26" y="2" width="1" height="1" fill="#53CB7B" />
<rect x="27" y="2" width="1" height="1" fill="#53CB7B" />
<rect x="28" y="2" width="1" height="1" fill="#53CB7B" />
<rect x="29" y="2" width="1" height="1" fill="#53CB7B" />
<rect x="30" y="2" width="1" height="1" fill="#53CB7B" />
<rect x="31" y="2" width="1" height="1" fill="#53CB7B" />
<rect x="32" y="2" width="1" height="1" fill="#53CB7B" />
<rect x="33" y="2" width="1" height="1" fill="#53CB7B" />
<rect x="34" y="2" width="1" height="1" fill="#53CB7B" />
<rect x="35" y="2" width="1" height="1" fill="#53CB7B" />
<rect x="36" y="2" width="1" height="1" fill="#53CB7B" />
<rect x="37" y="2" width="1" height="1" fill="#53CB7B" />
<rect x="38" y="2" width="1" height="1" fill="#53CB7B" />
<rect x="39" y="2" width="1" height="1" fill="#53CB7B" />
<rect x="40" y="2" width="1" height="1" fill="#349E89" />
<rect x="41" y="2" width="1" height="1" fill="#349E89" />
<rect x="42" y="2" width="1" height="1" fill="#323D5A" />
<rect x="43" y="2" width="1" height="1" fill="#323D5A" />
<rect x="20" y="3" width="1" height="1" fill="#323D5A" />
<rect x="21" y="3" width="1" height="1" fill="#323D5A" />
<rect x="22" y="3" width="1" height="1" fill="#349E89" />
<rect x="23" y="3" width="1" height="1" fill="#349E89" />
<rect x="24" y="3" width="1" height="1" fill="#53CB7B" />
<rect x="25" y="3" width="1" height="1" fill="#53CB7B" />
<rect x="26" y="3" width="1" height="1" fill="#53CB7B" />
<rect x="27" y="3" width="1" height="1" fill="#53CB7B" />
<rect x="28" y="3" width="1" height="1" fill="#53CB7B" />
<rect x="29" y="3" width="1" height="1" fill="#53CB7B" />
<rect x="30" y="3" width="1" height="1" fill="#53CB7B" />
<rect x="31" y="3" width="1" height="1" fill="#53CB7B" />
<rect x="32" y="3" width="1" height="1" fill="#53CB7B" />
<rect x="33" y="3" width="1" height="1" fill="#53CB7B" />
<rect x="34" y="3" width="1" height="1" fill="#53CB7B" />
<rect x="35" y="3" width="1" height="1" fill="#53CB7B" />
<rect x="36" y="3" width="1" height="1" fill="#53CB7B" />
<rect x="37" y="3" width="1" height="1" fill="#53CB7B" />
<rect x="38" y="3" width="1" height="1" fill="#53CB7B" />
<rect x="39" y="3" width="1" height="1" fill="#53CB7B" />
<rect x="40" y="3" width="1" height="1" fill="#349E89" />
<rect x="41" y="3" width="1" height="1" fill="#349E89" />
<rect x="42" y="3" width="1" height="1" fill="#323D5A" />
<rect x="43" y="3" width="1" height="1" fill="#323D5A" />
<rect x="24" y="4" width="1" height="1" fill="#323D5A" />
<rect x="25" y="4" width="1" height="1" fill="#323D5A" />
<rect x="26" y="4" width="1" height="1" fill="#323D5A" />
<rect x="27" y="4" width="1" height="1" fill="#323D5A" />
<rect x="28" y="4" width="1" height="1" fill="#2F657C" />
<rect x="29" y="4" width="1" height="1" fill="#2F657C" />
<rect x="30" y="4" width="1" height="1" fill="#2F657C" />
<rect x="31" y="4" width="1" height="1" fill="#2F657C" />
<rect x="32" y="4" width="1" height="1" fill="#2F657C" />
<rect x="33" y="4" width="1" height="1" fill="#2F657C" />
<rect x="34" y="4" width="1" height="1" fill="#2F657C" />
<rect x="35" y="4" width="1" height="1" fill="#2F657C" />
<rect x="36" y="4" width="1" height="1" fill="#323D5A" />
<rect x="37" y="4" width="1" height="1" fill="#323D5A" />
<rect x="38" y="4" width="1" height="1" fill="#323D5A" />
<rect x="39" y="4" width="1" height="1" fill="#323D5A" />
<rect x="24" y="5" width="1" height="1" fill="#323D5A" />
<rect x="25" y="5" width="1" height="1" fill="#323D5A" />
<rect x="26" y="5" width="1" height="1" fill="#323D5A" />
<rect x="27" y="5" width="1" height="1" fill="#323D5A" />
<rect x="28" y="5" width="1" height="1" fill="#2F657C" />
<rect x="29" y="5" width="1" height="1" fill="#2F657C" />
<rect x="30" y="5" width="1" height="1" fill="#2F657C" />
<rect x="31" y="5" width="1" height="1" fill="#2F657C" />
<rect x="32" y="5" width="1" height="1" fill="#2F657C" />
<rect x="33" y="5" width="1" height="1" fill="#2F657C" />
<rect x="34" y="5" width="1" height="1" fill="#2F657C" />
<rect x="35" y="5" width="1" height="1" fill="#2F657C" />
<rect x="36" y="5" width="1" height="1" fill="#323D5A" />
<rect x="37" y="5" width="1" height="1" fill="#323D5A" />
<rect x="38" y="5" width="1" height="1" fill="#323D5A" />
<rect x="39" y="5" width="1" height="1" fill="#323D5A" />
<rect x="22" y="6" width="1" height="1" fill="#323D5A" />
<rect x="23" y="6" width="1" height="1" fill="#323D5A" />
<rect x="24" y="6" width="1" height="1" fill="#2F657C" />
<rect x="25" y="6" width="1" height="1" fill="#2F657C" />
<rect x="26" y="6" width="1" height="1" fill="#2F657C" />
<rect x="27" y="6" width="1" height="1" fill="#2F657C" />
<rect x="28" y="6" width="1" height="1" fill="#2F657C" />
<rect x="29" y="6" width="1" height="1" fill="#2F657C" />
<rect x="30" y="6" width="1" height="1" fill="#2F657C" />
<rect x="31" y="6" width="1" height="1" fill="#2F657C" />
<rect x="32" y="6" width="1" height="1" fill="#2F657C" />
<rect x="33" y="6" width="1" height="1" fill="#2F657C" />
<rect x="34" y="6" width="1" height="1" fill="#2F657C" />
<rect x="35" y="6" width="1" height="1" fill="#2F657C" />
<rect x="36" y="6" width="1" height="1" fill="#2F657C" />
<rect x="37" y="6" width="1" height="1" fill="#2F657C" />
<rect x="38" y="6" width="1" height="1" fill="#2F657C" />
<rect x="39" y="6" width="1" height="1" fill="#2F657C" />
<rect x="40" y="6" width="1" height="1" fill="#323D5A" />
<rect x="41" y="6" width="1" height="1" fill="#323D5A" />
<rect x="22" y="7" width="1" height="1" fill="#323D5A" />
<rect x="23" y="7" width="1" height="1" fill="#323D5A" />
<rect x="24" y="7" width="1" height="1" fill="#2F657C" />
<rect x="25" y="7" width="1" height="1" fill="#2F657C" />
<rect x="26" y="7" width="1" height="1" fill="#2F657C" />
<rect x="27" y="7" width="1" height="1" fill="#2F657C" />
<rect x="28" y="7" width="1" height="1" fill="#2F657C" />
<rect x="29" y="7" width="1" height="1" fill="#2F657C" />
<rect x="30" y="7" width="1" height="1" fill="#2F657C" />
<rect x="31" y="7" width="1" height="1" fill="#2F657C" />
<rect x="32" y="7" width="1" height="1" fill="#2F657C" />
<rect x="33" y="7" width="1" height="1" fill="#2F657C" />
<rect x="34" y="7" width="1" height="1" fill="#2F657C" />
<rect x="35" y="7" width="1" height="1" fill="#2F657C" />
<rect x="36" y="7" width="1" height="1" fill="#2F657C" />
<rect x="37" y="7" width="1" height="1" fill="#2F657C" />
<rect x="38" y="7" width="1" height="1" fill="#2F657C" />
<rect x="39" y="7" width="1" height="1" fill="#2F657C" />
<rect x="40" y="7" width="1" height="1" fill="#323D5A" />
<rect x="41" y="7" width="1" height="1" fill="#323D5A" />
<rect x="22" y="8" width="1" height="1" fill="#323D5A" />
<rect x="23" y="8" width="1" height="1" fill="#323D5A" />
<rect x="24" y="8" width="1" height="1" fill="#2F657C" />
<rect x="25" y="8" width="1" height="1" fill="#2F657C" />
<rect x="26" y="8" width="1" height="1" fill="#2F657C" />
<rect x="27" y="8" width="1" height="1" fill="#2F657C" />
<rect x="28" y="8" width="1" height="1" fill="#2F657C" />
<rect x="29" y="8" width="1" height="1" fill="#2F657C" />
<rect x="30" y="8" width="1" height="1" fill="#2F657C" />
<rect x="31" y="8" width="1" height="1" fill="#2F657C" />
<rect x="32" y="8" width="1" height="1" fill="#2F657C" />
<rect x="33" y="8" width="1" height="1" fill="#2F657C" />
<rect x="34" y="8" width="1" height="1" fill="#2F657C" />
<rect x="35" y="8" width="1" height="1" fill="#2F657C" />
<rect x="36" y="8" width="1" height="1" fill="#2F657C" />
<rect x="37" y="8" width="1" height="1" fill="#2F657C" />
<rect x="38" y="8" width="1" height="1" fill="#2F657C" />
<rect x="39" y="8" width="1" height="1" fill="#2F657C" />
<rect x="40" y="8" width="1" height="1" fill="#323D5A" />
<rect x="41" y="8" width="1" height="1" fill="#323D5A" />
<rect x="22" y="9" width="1" height="1" fill="#323D5A" />
<rect x="23" y="9" width="1" height="1" fill="#323D5A" />
<rect x="24" y="9" width="1" height="1" fill="#2F657C" />
<rect x="25" y="9" width="1" height="1" fill="#2F657C" />
<rect x="26" y="9" width="1" height="1" fill="#2F657C" />
<rect x="27" y="9" width="1" height="1" fill="#2F657C" />
<rect x="28" y="9" width="1" height="1" fill="#2F657C" />
<rect x="29" y="9" width="1" height="1" fill="#2F657C" />
<rect x="30" y="9" width="1" height="1" fill="#2F657C" />
<rect x="31" y="9" width="1" height="1" fill="#2F657C" />
<rect x="32" y="9" width="1" height="1" fill="#2F657C" />
<rect x="33" y="9" width="1" height="1" fill="#2F657C" />
<rect x="34" y="9" width="1" height="1" fill="#2F657C" />
<rect x="35" y="9" width="1" height="1" fill="#2F657C" />
<rect x="36" y="9" width="1" height="1" fill="#2F657C" />
<rect x="37" y="9" width="1" height="1" fill="#2F657C" />
<rect x="38" y="9" width="1" height="1" fill="#2F657C" />
<rect x="39" y="9" width="1" height="1" fill="#2F657C" />
<rect x="40" y="9" width="1" height="1" fill="#323D5A" />
<rect x="41" y="9" width="1" height="1" fill="#323D5A" />
<rect x="20" y="10" width="1" height="1" fill="#323D5A" />
<rect x="21" y="10" width="1" height="1" fill="#323D5A" />
<rect x="22" y="10" width="1" height="1" fill="#2F657C" />
<rect x="23" y="10" width="1" height="1" fill="#2F657C" />
<rect x="24" y="10" width="1" height="1" fill="#2F657C" />
<rect x="25" y="10" width="1" height="1" fill="#2F657C" />
<rect x="26" y="10" width="1" height="1" fill="#2F657C" />
<rect x="27" y="10" width="1" height="1" fill="#2F657C" />
<rect x="28" y="10" width="1" height="1" fill="#2F657C" />
<rect x="29" y="10" width="1" height="1" fill="#2F657C" />
<rect x="30" y="10" width="1" height="1" fill="#2F657C" />
<rect x="31" y="10" width="1" height="1" fill="#2F657C" />
<rect x="32" y="10" width="1" height="1" fill="#2F657C" />
<rect x="33" y="10" width="1" height="1" fill="#2F657C" />
<rect x="34" y="10" width="1" height="1" fill="#2F657C" />
<rect x="35" y="10" width="1" height="1" fill="#2F657C" />
<rect x="36" y="10" width="1" height="1" fill="#2F657C" />
<rect x="37" y="10" width="1" height="1" fill="#2F657C" />
<rect x="38" y="10" width="1" height="1" fill="#2F657C" />
<rect x="39" y="10" width="1" height="1" fill="#2F657C" />
<rect x="40" y="10" width="1" height="1" fill="#2F657C" />
<rect x="41" y="10" width="1" height="1" fill="#2F657C" />
<rect x="42" y="10" width="1" height="1" fill="#323D5A" />
<rect x="43" y="10" width="1" height="1" fill="#323D5A" />
<rect x="20" y="11" width="1" height="1" fill="#323D5A" />
<rect x="21" y="11" width="1" height="1" fill="#323D5A" />
<rect x="22" y="11" width="1" height="1" fill="#2F657C" />
<rect x="23" y="11" width="1" height="1" fill="#2F657C" />
<rect x="24" y="11" width="1" height="1" fill="#2F657C" />
<rect x="25" y="11" width="1" height="1" fill="#2F657C" />
<rect x="26" y="11" width="1" height="1" fill="#2F657C" />
<rect x="27" y="11" width="1" height="1" fill="#2F657C" />
<rect x="28" y="11" width="1" height="1" fill="#2F657C" />
<rect x="29" y="11" width="1" height="1" fill="#2F657C" />
<rect x="30" y="11" width="1" height="1" fill="#2F657C" />
<rect x="31" y="11" width="1" height="1" fill="#2F657C" />
<rect x="32" y="11" width="1" height="1" fill="#2F657C" />
<rect x="33" y="11" width="1" height="1" fill="#2F657C" />
<rect x="34" y="11" width="1" height="1" fill="#2F657C" />
<rect x="35" y="11" width="1" height="1" fill="#2F657C" />
<rect x="36" y="11" width="1" height="1" fill="#2F657C" />
<rect x="37" y="11" width="1" height="1" fill="#2F657C" />
<rect x="38" y="11" width="1" height="1" fill="#2F657C" />
<rect x="39" y="11" width="1" height="1" fill="#2F657C" />
<rect x="40" y="11" width="1" height="1" fill="#2F657C" />
<rect x="41" y="11" width="1" height="1" fill="#2F657C" />
<rect x="42" y="11" width="1" height="1" fill="#323D5A" />
<rect x="43" y="11" width="1" height="1" fill="#323D5A" />
<rect x="20" y="12" width="1" height="1" fill="#323D5A" />
<rect x="21" y="12" width="1" height="1" fill="#323D5A" />
<rect x="22" y="12" width="1" height="1" fill="#2F657C" />
<rect x="23" y="12" width="1" height="1" fill="#2F657C" />
<rect x="24" y="12" width="1" height="1" fill="#2F657C" />
<rect x="25" y="12" width="1" height="1" fill="#2F657C" />
<rect x="26" y="12" width="1" height="1" fill="#2F657C" />
<rect x="27" y="12" width="1" height="1" fill="#2F657C" />
<rect x="28" y="12" width="1" height="1" fill="#2F657C" />
<rect x="29" y="12" width="1" height="1" fill="#2F657C" />
<rect x="30" y="12" width="1" height="1" fill="#2F657C" />
<rect x="31" y="12" width="1" height="1" fill="#2F657C" />
<rect x="32" y="12" width="1" height="1" fill="#2F657C" />
<rect x="33" y="12" width="1" height="1" fill="#2F657C" />
<rect x="34" y="12" width="1" height="1" fill="#2F657C" />
<rect x="35" y="12" width="1" height="1" fill="#2F657C" />
<rect x="36" y="12" width="1" height="1" fill="#2F657C" />
<rect x="37" y="12" width="1" height="1" fill="#2F657C" />
<rect x="38" y="12" width="1" height="1" fill="#2F657C" />
<rect x="39" y="12" width="1" height="1" fill="#2F657C" />
<rect x="40" y="12" width="1" height="1" fill="#2F657C" />
<rect x="41" y="12" width="1" height="1" fill="#2F657C" />
<rect x="42" y="12" width="1" height="1" fill="#323D5A" />
<rect x="43" y="12" width="1" height="1" fill="#323D5A" />
<rect x="20" y="13" width="1" height="1" fill="#323D5A" />
<rect x="21" y="13" width="1" height="1" fill="#323D5A" />
<rect x="22" y="13" width="1" height="1" fill="#2F657C" />
<rect x="23" y="13" width="1" height="1" fill="#2F657C" />
<rect x="24" y="13" width="1" height="1" fill="#2F657C" />
<rect x="25" y="13" width="1" height="1" fill="#2F657C" />
<rect x="26" y="13" width="1" height="1" fill="#2F657C" />
<rect x="27" y="13" width="1" height="1" fill="#2F657C" />
<rect x="28" y="13" width="1" height="1" fill="#2F657C" />
<rect x="29" y="13" width="1" height="1" fill="#2F657C" />
<rect x="30" y="13" width="1" height="1" fill="#2F657C" />
<rect x="31" y="13" width="1" height="1" fill="#2F657C" />
<rect x="32" y="13" width="1" height="1" fill="#2F657C" />
<rect x="33" y="13" width="1" height="1" fill="#2F657C" />
<rect x="34" y="13" width="1" height="1" fill="#2F657C" />
<rect x="35" y="13" width="1" height="1" fill="#2F657C" />
<rect x="36" y="13" width="1" height="1" fill="#2F657C" />
<rect x="37" y="13" width="1" height="1" fill="#2F657C" />
<rect x="38" y="13" width="1" height="1" fill="#2F657C" />
<rect x="39" y="13" width="1" height="1" fill="#2F657C" />
<rect x="40" y="13" width="1" height="1" fill="#2F657C" />
<rect x="41" y="13" width="1" height="1" fill="#2F657C" />
<rect x="42" y="13" width="1" height="1" fill="#323D5A" />
<rect x="43" y="13" width="1" height="1" fill="#323D5A" />
<rect x="20" y="14" width="1" height="1" fill="#323D5A" />
<rect x="21" y="14" width="1" height="1" fill="#323D5A" />
<rect x="22" y="14" width="1" height="1" fill="#323D5A" />
<rect x="23" y="14" width="1" height="1" fill="#323D5A" />
<rect x="24" y="14" width="1" height="1" fill="#2F657C" />
<rect x="25" y="14" width="1" height="1" fill="#2F657C" />
<rect x="26" y="14" width="1" height="1" fill="#2F657C" />
<rect x="27" y="14" width="1" height="1" fill="#2F657C" />
<rect x="28" y="14" width="1" height="1" fill="#2F657C" />
<rect x="29" y="14" width="1" height="1" fill="#2F657C" />
<rect x="30" y="14" width="1" height="1" fill="#2F657C" />
<rect x="31" y="14" width="1" height="1" fill="#2F657C" />
<rect x="32" y="14" width="1" height="1" fill="#2F657C" />
<rect x="33" y="14" width="1" height="1" fill="#2F657C" />
<rect x="34" y="14" width="1" height="1" fill="#2F657C" />
<rect x="35" y="14" width="1" height="1" fill="#2F657C" />
<rect x="36" y="14" width="1" height="1" fill="#2F657C" />
<rect x="37" y="14" width="1" height="1" fill="#2F657C" />
<rect x="38" y="14" width="1" height="1" fill="#2F657C" />
<rect x="39" y="14" width="1" height="1" fill="#2F657C" />
<rect x="40" y="14" width="1" height="1" fill="#323D5A" />
<rect x="41" y="14" width="1" height="1" fill="#323D5A" />
<rect x="42" y="14" width="1" height="1" fill="#323D5A" />
<rect x="43" y="14" width="1" height="1" fill="#323D5A" />
<rect x="20" y="15" width="1" height="1" fill="#323D5A" />
<rect x="21" y="15" width="1" height="1" fill="#323D5A" />
<rect x="22" y="15" width="1" height="1" fill="#323D5A" />
<rect x="23" y="15" width="1" height="1" fill="#323D5A" />
<rect x="24" y="15" width="1" height="1" fill="#2F657C" />
<rect x="25" y="15" width="1" height="1" fill="#2F657C" />
<rect x="26" y="15" width="1" height="1" fill="#2F657C" />
<rect x="27" y="15" width="1" height="1" fill="#2F657C" />
<rect x="28" y="15" width="1" height="1" fill="#2F657C" />
<rect x="29" y="15" width="1" height="1" fill="#2F657C" />
<rect x="30" y="15" width="1" height="1" fill="#2F657C" />
<rect x="31" y="15" width="1" height="1" fill="#2F657C" />
<rect x="32" y="15" width="1" height="1" fill="#2F657C" />
<rect x="33" y="15" width="1" height="1" fill="#2F657C" />
<rect x="34" y="15" width="1" height="1" fill="#2F657C" />
<rect x="35" y="15" width="1" height="1" fill="#2F657C" />
<rect x="36" y="15" width="1" height="1" fill="#2F657C" />
<rect x="37" y="15" width="1" height="1" fill="#2F657C" />
<rect x="38" y="15" width="1" height="1" fill="#2F657C" />
<rect x="39" y="15" width="1" height="1" fill="#2F657C" />
<rect x="40" y="15" width="1" height="1" fill="#323D5A" />
<rect x="41" y="15" width="1" height="1" fill="#323D5A" />
<rect x="42" y="15" width="1" height="1" fill="#323D5A" />
<rect x="43" y="15" width="1" height="1" fill="#323D5A" />
<rect x="20" y="16" width="1" height="1" fill="#323D5A" />
<rect x="21" y="16" width="1" height="1" fill="#323D5A" />
<rect x="22" y="16" width="1" height="1" fill="#323D5A" />
<rect x="23" y="16" width="1" height="1" fill="#323D5A" />
<rect x="24" y="16" width="1" height="1" fill="#323D5A" />
<rect x="25" y="16" width="1" height="1" fill="#323D5A" />
<rect x="26" y="16" width="1" height="1" fill="#323D5A" />
<rect x="27" y="16" width="1" height="1" fill="#323D5A" />
<rect x="28" y="16" width="1" height="1" fill="#2F657C" />
<rect x="29" y="16" width="1" height="1" fill="#2F657C" />
<rect x="30" y="16" width="1" height="1" fill="#2F657C" />
<rect x="31" y="16" width="1" height="1" fill="#2F657C" />
<rect x="32" y="16" width="1" height="1" fill="#2F657C" />
<rect x="33" y="16" width="1" height="1" fill="#2F657C" />
<rect x="34" y="16" width="1" height="1" fill="#2F657C" />
<rect x="35" y="16" width="1" height="1" fill="#2F657C" />
<rect x="36" y="16" width="1" height="1" fill="#323D5A" />
<rect x="37" y="16" width="1" height="1" fill="#323D5A" />
<rect x="38" y="16" width="1" height="1" fill="#323D5A" />
<rect x="39" y="16" width="1" height="1" fill="#323D5A" />
<rect x="40" y="16" width="1" height="1" fill="#323D5A" />
<rect x="41" y="16" width="1" height="1" fill="#323D5A" />
<rect x="42" y="16" width="1" height="1" fill="#323D5A" />
<rect x="43" y="16" width="1" height="1" fill="#323D5A" />
<rect x="20" y="17" width="1" height="1" fill="#323D5A" />
<rect x="21" y="17" width="1" height="1" fill="#323D5A" />
<rect x="22" y="17" width="1" height="1" fill="#323D5A" />
<rect x="23" y="17" width="1" height="1" fill="#323D5A" />
<rect x="24" y="17" width="1" height="1" fill="#323D5A" />
<rect x="25" y="17" width="1" height="1" fill="#323D5A" />
<rect x="26" y="17" width="1" height="1" fill="#323D5A" />
<rect x="27" y="17" width="1" height="1" fill="#323D5A" />
<rect x="28" y="17" width="1" height="1" fill="#2F657C" />
<rect x="29" y="17" width="1" height="1" fill="#2F657C" />
<rect x="30" y="17" width="1" height="1" fill="#2F657C" />
<rect x="31" y="17" width="1" height="1" fill="#2F657C" />
<rect x="32" y="17" width="1" height="1" fill="#2F657C" />
<rect x="33" y="17" width="1" height="1" fill="#2F657C" />
<rect x="34" y="17" width="1" height="1" fill="#2F657C" />
<rect x="35" y="17" width="1" height="1" fill="#2F657C" />
<rect x="36" y="17" width="1" height="1" fill="#323D5A" />
<rect x="37" y="17" width="1" height="1" fill="#323D5A" />
<rect x="38" y="17" width="1" height="1" fill="#323D5A" />
<rect x="39" y="17" width="1" height="1" fill="#323D5A" />
<rect x="40" y="17" width="1" height="1" fill="#323D5A" />
<rect x="41" y="17" width="1" height="1" fill="#323D5A" />
<rect x="42" y="17" width="1" height="1" fill="#323D5A" />
<rect x="43" y="17" width="1" height="1" fill="#323D5A" />
<rect x="22" y="18" width="1" height="1" fill="#323D5A" />
<rect x="23" y="18" width="1" height="1" fill="#323D5A" />
<rect x="24" y="18" width="1" height="1" fill="#323D5A" />
<rect x="25" y="18" width="1" height="1" fill="#323D5A" />
<rect x="26" y="18" width="1" height="1" fill="#323D5A" />
<rect x="27" y="18" width="1" height="1" fill="#323D5A" />
<rect x="28" y="18" width="1" height="1" fill="#323D5A" />
<rect x="29" y="18" width="1" height="1" fill="#323D5A" />
<rect x="30" y="18" width="1" height="1" fill="#323D5A" />
<rect x="31" y="18" width="1" height="1" fill="#323D5A" />
<rect x="32" y="18" width="1" height="1" fill="#323D5A" />
<rect x="33" y="18" width="1" height="1" fill="#323D5A" />
<rect x="34" y="18" width="1" height="1" fill="#323D5A" />
<rect x="35" y="18" width="1" height="1" fill="#323D5A" />
<rect x="36" y="18" width="1" height="1" fill="#323D5A" />
<rect x="37" y="18" width="1" height="1" fill="#323D5A" />
<rect x="38" y="18" width="1" height="1" fill="#323D5A" />
<rect x="39" y="18" width="1" height="1" fill="#323D5A" />
<rect x="40" y="18" width="1" height="1" fill="#323D5A" />
<rect x="41" y="18" width="1" height="1" fill="#323D5A" />
<rect x="22" y="19" width="1" height="1" fill="#323D5A" />
<rect x="23" y="19" width="1" height="1" fill="#323D5A" />
<rect x="24" y="19" width="1" height="1" fill="#323D5A" />
<rect x="25" y="19" width="1" height="1" fill="#323D5A" />
<rect x="26" y="19" width="1" height="1" fill="#323D5A" />
<rect x="27" y="19" width="1" height="1" fill="#323D5A" />
<rect x="28" y="19" width="1" height="1" fill="#323D5A" />
<rect x="29" y="19" width="1" height="1" fill="#323D5A" />
<rect x="30" y="19" width="1" height="1" fill="#323D5A" />
<rect x="31" y="19" width="1" height="1" fill="#323D5A" />
<rect x="32" y="19" width="1" height="1" fill="#323D5A" />
<rect x="33" y="19" width="1" height="1" fill="#323D5A" />
<rect x="34" y="19" width="1" height="1" fill="#323D5A" />
<rect x="35" y="19" width="1" height="1" fill="#323D5A" />
<rect x="36" y="19" width="1" height="1" fill="#323D5A" />
<rect x="37" y="19" width="1" height="1" fill="#323D5A" />
<rect x="38" y="19" width="1" height="1" fill="#323D5A" />
<rect x="39" y="19" width="1" height="1" fill="#323D5A" />
<rect x="40" y="19" width="1" height="1" fill="#323D5A" />
<rect x="41" y="19" width="1" height="1" fill="#323D5A" />
</svg>