<?xml version="1.0" encoding="UTF-8" ?>
<svg version="1.1" width="32" height="32" xmlns="http://www.w3.org/2000/svg" shape-rendering="crispEdges">
<rect x="9" y="0" width="1" height="1" fill="#2C3B4F" />
<rect x="10" y="0" width="1" height="1" fill="#2B9A84" />
<rect x="11" y="0" width="1" height="1" fill="#53CB7B" />
<rect x="12" y="0" width="1" height="1" fill="#53CB7B" />
<rect x="13" y="0" width="1" height="1" fill="#53CB7B" />
<rect x="14" y="0" width="1" height="1" fill="#53CB7B" />
<rect x="15" y="0" width="1" height="1" fill="#53CB7B" />
<rect x="16" y="0" width="1" height="1" fill="#53CB7B" />
<rect x="17" y="0" width="1" height="1" fill="#53CB7B" />
<rect x="18" y="0" width="1" height="1" fill="#53CB7B" />
<rect x="19" y="0" width="1" height="1" fill="#53CB7B" />
<rect x="20" y="0" width="1" height="1" fill="#53CB7B" />
<rect x="21" y="0" width="1" height="1" fill="#2B9A84" />
<rect x="22" y="0" width="1" height="1" fill="#2C3B4F" />
<rect x="10" y="1" width="1" height="1" fill="#2C3B4F" />
<rect x="11" y="1" width="1" height="1" fill="#2B9A84" />
<rect x="12" y="1" width="1" height="1" fill="#53CB7B" />
<rect x="13" y="1" width="1" height="1" fill="#53CB7B" />
<rect x="14" y="1" width="1" height="1" fill="#53CB7B" />
<rect x="15" y="1" width="1" height="1" fill="#53CB7B" />
<rect x="16" y="1" width="1" height="1" fill="#53CB7B" />
<rect x="17" y="1" width="1" height="1" fill="#53CB7B" />
<rect x="18" y="1" width="1" height="1" fill="#53CB7B" />
<rect x="19" y="1" width="1" height="1" fill="#53CB7B" />
<rect x="20" y="1" width="1" height="1" fill="#2B9A84" />
<rect x="21" y="1" width="1" height="1" fill="#2C3B4F" />
<rect x="11" y="2" width="1" height="1" fill="#2C3B4F" />
<rect x="12" y="2" width="1" height="1" fill="#2C3B4F" />
<rect x="13" y="2" width="1" height="1" fill="#2C3B4F" />
<rect x="14" y="2" width="1" height="1" fill="#2C3B4F" />
<rect x="15" y="2" width="1" height="1" fill="#336478" />
<rect x="16" y="2" width="1" height="1" fill="#336478" />
<rect x="17" y="2" width="1" height="1" fill="#2C3B4F" />
<rect x="18" y="2" width="1" height="1" fill="#2C3B4F" />
<rect x="19" y="2" width="1" height="1" fill="#2C3B4F" />
<rect x="14" y="3" width="1" height="1" fill="#2C3B4F" />
<rect x="15" y="3" width="1" height="1" fill="#336478" />
<rect x="16" y="3" width="1" height="1" fill="#336478" />
<rect x="17" y="3" width="1" height="1" fill="#2C3B4F" />
<rect x="14" y="4" width="1" height="1" fill="#2C3B4F" />
<rect x="15" y="4" width="1" height="1" fill="#336478" />
<rect x="16" y="4" width="1" height="1" fill="#336478" />
<rect x="17" y="4" width="1" height="1" fill="#2C3B4F" />
<rect x="12" y="5" width="1" height="1" fill="#2C3B4F" />
<rect x="13" y="5" width="1" height="1" fill="#2C3B4F" />
<rect x="14" y="5" width="1" height="1" fill="#2C3B4F" />
<rect x="15" y="5" width="1" height="1" fill="#336478" />
<rect x="16" y="5" width="1" height="1" fill="#336478" />
<rect x="17" y="5" width="1" height="1" fill="#2C3B4F" />
<rect x="18" y="5" width="1" height="1" fill="#2C3B4F" />
<rect x="19" y="5" width="1" height="1" fill="#2C3B4F" />
<rect x="11" y="6" width="1" height="1" fill="#2C3B4F" />
<rect x="12" y="6" width="1" height="1" fill="#336478" />
<rect x="13" y="6" width="1" height="1" fill="#336478" />
<rect x="14" y="6" width="1" height="1" fill="#2C3B4F" />
<rect x="15" y="6" width="1" height="1" fill="#336478" />
<rect x="16" y="6" width="1" height="1" fill="#336478" />
<rect x="17" y="6" width="1" height="1" fill="#2C3B4F" />
<rect x="18" y="6" width="1" height="1" fill="#336478" />
<rect x="19" y="6" width="1" height="1" fill="#336478" />
<rect x="20" y="6" width="1" height="1" fill="#2C3B4F" />
<rect x="10" y="7" width="1" height="1" fill="#2C3B4F" />
<rect x="11" y="7" width="1" height="1" fill="#336478" />
<rect x="12" y="7" width="1" height="1" fill="#336478" />
<rect x="13" y="7" width="1" height="1" fill="#336478" />
<rect x="14" y="7" width="1" height="1" fill="#336478" />
<rect x="15" y="7" width="1" height="1" fill="#336478" />
<rect x="16" y="7" width="1" height="1" fill="#336478" />
<rect x="17" y="7" width="1" height="1" fill="#336478" />
<rect x="18" y="7" width="1" height="1" fill="#336478" />
<rect x="19" y="7" width="1" height="1" fill="#336478" />
<rect x="20" y="7" width="1" height="1" fill="#336478" />
<rect x="21" y="7" width="1" height="1" fill="#2C3B4F" />
<rect x="10" y="8" width="1" height="1" fill="#2C3B4F" />
<rect x="11" y="8" width="1" height="1" fill="#336478" />
<rect x="12" y="8" width="1" height="1" fill="#336478" />
<rect x="13" y="8" width="1" height="1" fill="#336478" />
<rect x="14" y="8" width="1" height="1" fill="#336478" />
<rect x="15" y="8" width="1" height="1" fill="#336478" />
<rect x="16" y="8" width="1" height="1" fill="#336478" />
<rect x="17" y="8" width="1" height="1" fill="#336478" />
<rect x="18" y="8" width="1" height="1" fill="#336478" />
<rect x="19" y="8" width="1" height="1" fill="#336478" />
<rect x="20" y="8" width="1" height="1" fill="#336478" />
<rect x="21" y="8" width="1" height="1" fill="#2C3B4F" />
<rect x="11" y="9" width="1" height="1" fill="#2C3B4F" />
<rect x="12" y="9" width="1" height="1" fill="#336478" />
<rect x="13" y="9" width="1" height="1" fill="#336478" />
<rect x="14" y="9" width="1" height="1" fill="#336478" />
<rect x="15" y="9" width="1" height="1" fill="#336478" />
<rect x="16" y="9" width="1" height="1" fill="#336478" />
<rect x="17" y="9" width="1" height="1" fill="#336478" />
<rect x="18" y="9" width="1" height="1" fill="#336478" />
<rect x="19" y="9" width="1" height="1" fill="#336478" />
<rect x="20" y="9" width="1" height="1" fill="#2C3B4F" />
<rect x="13" y="10" width="1" height="1" fill="#2C3B4F" />
<rect x="14" y="10" width="1" height="1" fill="#2C3B4F" />
<rect x="15" y="10" width="1" height="1" fill="#336478" />
<rect x="16" y="10" width="1" height="1" fill="#336478" />
<rect x="17" y="10" width="1" height="1" fill="#2C3B4F" />
<rect x="18" y="10" width="1" height="1" fill="#2C3B4F" />
</svg>