<?xml version="1.0" encoding="UTF-8" ?>
<svg version="1.1" width="32" height="32" xmlns="http://www.w3.org/2000/svg" shape-rendering="crispEdges">
<rect x="22" y="6" width="1" height="1" fill="#2C3B4F" />
<rect x="23" y="6" width="1" height="1" fill="#2C3B4F" />
<rect x="24" y="6" width="1" height="1" fill="#2C3B4F" />
<rect x="20" y="7" width="1" height="1" fill="#2C3B4F" />
<rect x="21" y="7" width="1" height="1" fill="#2C3B4F" />
<rect x="22" y="7" width="1" height="1" fill="#53CB7B" />
<rect x="23" y="7" width="1" height="1" fill="#53CB7B" />
<rect x="24" y="7" width="1" height="1" fill="#53CB7B" />
<rect x="25" y="7" width="1" height="1" fill="#2C3B4F" />
<rect x="17" y="8" width="1" height="1" fill="#2C3B4F" />
<rect x="18" y="8" width="1" height="1" fill="#2C3B4F" />
<rect x="19" y="8" width="1" height="1" fill="#2C3B4F" />
<rect x="20" y="8" width="1" height="1" fill="#53CB7B" />
<rect x="21" y="8" width="1" height="1" fill="#53CB7B" />
<rect x="22" y="8" width="1" height="1" fill="#53CB7B" />
<rect x="23" y="8" width="1" height="1" fill="#53CB7B" />
<rect x="24" y="8" width="1" height="1" fill="#F4C682" />
<rect x="25" y="8" width="1" height="1" fill="#53CB7B" />
<rect x="26" y="8" width="1" height="1" fill="#2C3B4F" />
<rect x="17" y="9" width="1" height="1" fill="#2C3B4F" />
<rect x="18" y="9" width="1" height="1" fill="#2B9A84" />
<rect x="19" y="9" width="1" height="1" fill="#53CB7B" />
<rect x="20" y="9" width="1" height="1" fill="#53CB7B" />
<rect x="21" y="9" width="1" height="1" fill="#53CB7B" />
<rect x="22" y="9" width="1" height="1" fill="#FFDDB7" />
<rect x="23" y="9" width="1" height="1" fill="#FFDDB7" />
<rect x="24" y="9" width="1" height="1" fill="#FFDDB7" />
<rect x="25" y="9" width="1" height="1" fill="#FFDDB7" />
<rect x="26" y="9" width="1" height="1" fill="#53CB7B" />
<rect x="27" y="9" width="1" height="1" fill="#2C3B4F" />
<rect x="17" y="10" width="1" height="1" fill="#2C3B4F" />
<rect x="18" y="10" width="1" height="1" fill="#2B9A84" />
<rect x="19" y="10" width="1" height="1" fill="#F4C682" />
<rect x="20" y="10" width="1" height="1" fill="#53CB7B" />
<rect x="21" y="10" width="1" height="1" fill="#F4C682" />
<rect x="22" y="10" width="1" height="1" fill="#FFDDB7" />
<rect x="23" y="10" width="1" height="1" fill="#FFDDB7" />
<rect x="24" y="10" width="1" height="1" fill="#53CB7B" />
<rect x="25" y="10" width="1" height="1" fill="#53CB7B" />
<rect x="26" y="10" width="1" height="1" fill="#53CB7B" />
<rect x="27" y="10" width="1" height="1" fill="#53CB7B" />
<rect x="28" y="10" width="1" height="1" fill="#2C3B4F" />
<rect x="17" y="11" width="1" height="1" fill="#2C3B4F" />
<rect x="18" y="11" width="1" height="1" fill="#2B9A84" />
<rect x="19" y="11" width="1" height="1" fill="#F4C682" />
<rect x="20" y="11" width="1" height="1" fill="#2B9A84" />
<rect x="21" y="11" width="1" height="1" fill="#53CB7B" />
<rect x="22" y="11" width="1" height="1" fill="#53CB7B" />
<rect x="23" y="11" width="1" height="1" fill="#53CB7B" />
<rect x="24" y="11" width="1" height="1" fill="#53CB7B" />
<rect x="25" y="11" width="1" height="1" fill="#53CB7B" />
<rect x="26" y="11" width="1" height="1" fill="#53CB7B" />
<rect x="27" y="11" width="1" height="1" fill="#53CB7B" />
<rect x="28" y="11" width="1" height="1" fill="#53CB7B" />
<rect x="29" y="11" width="1" height="1" fill="#2C3B4F" />
<rect x="17" y="12" width="1" height="1" fill="#2C3B4F" />
<rect x="18" y="12" width="1" height="1" fill="#2B9A84" />
<rect x="19" y="12" width="1" height="1" fill="#F4C682" />
<rect x="20" y="12" width="1" height="1" fill="#2B9A84" />
<rect x="21" y="12" width="1" height="1" fill="#2B9A84" />
<rect x="22" y="12" width="1" height="1" fill="#53CB7B" />
<rect x="23" y="12" width="1" height="1" fill="#53CB7B" />
<rect x="24" y="12" width="1" height="1" fill="#53CB7B" />
<rect x="25" y="12" width="1" height="1" fill="#53CB7B" />
<rect x="26" y="12" width="1" height="1" fill="#53CB7B" />
<rect x="27" y="12" width="1" height="1" fill="#2B9A84" />
<rect x="28" y="12" width="1" height="1" fill="#2B9A84" />
<rect x="29" y="12" width="1" height="1" fill="#2C3B4F" />
<rect x="18" y="13" width="1" height="1" fill="#2C3B4F" />
<rect x="19" y="13" width="1" height="1" fill="#F4C682" />
<rect x="20" y="13" width="1" height="1" fill="#2B9A84" />
<rect x="21" y="13" width="1" height="1" fill="#2B9A84" />
<rect x="22" y="13" width="1" height="1" fill="#F4C682" />
<rect x="23" y="13" width="1" height="1" fill="#53CB7B" />
<rect x="24" y="13" width="1" height="1" fill="#53CB7B" />
<rect x="25" y="13" width="1" height="1" fill="#2B9A84" />
<rect x="26" y="13" width="1" height="1" fill="#2B9A84" />
<rect x="27" y="13" width="1" height="1" fill="#F4C682" />
<rect x="28" y="13" width="1" height="1" fill="#F4C682" />
<rect x="29" y="13" width="1" height="1" fill="#2C3B4F" />
<rect x="19" y="14" width="1" height="1" fill="#2C3B4F" />
<rect x="20" y="14" width="1" height="1" fill="#2B9A84" />
<rect x="21" y="14" width="1" height="1" fill="#2B9A84" />
<rect x="22" y="14" width="1" height="1" fill="#F4C682" />
<rect x="23" y="14" width="1" height="1" fill="#2B9A84" />
<rect x="24" y="14" width="1" height="1" fill="#2B9A84" />
<rect x="25" y="14" width="1" height="1" fill="#FFDDB7" />
<rect x="26" y="14" width="1" height="1" fill="#FFDDB7" />
<rect x="27" y="14" width="1" height="1" fill="#FFDDB7" />
<rect x="28" y="14" width="1" height="1" fill="#2B9A84" />
<rect x="29" y="14" width="1" height="1" fill="#2C3B4F" />
<rect x="20" y="15" width="1" height="1" fill="#2C3B4F" />
<rect x="21" y="15" width="1" height="1" fill="#2B9A84" />
<rect x="22" y="15" width="1" height="1" fill="#F4C682" />
<rect x="23" y="15" width="1" height="1" fill="#2B9A84" />
<rect x="24" y="15" width="1" height="1" fill="#F4C682" />
<rect x="25" y="15" width="1" height="1" fill="#F4C682" />
<rect x="26" y="15" width="1" height="1" fill="#2B9A84" />
<rect x="27" y="15" width="1" height="1" fill="#2C3B4F" />
<rect x="21" y="16" width="1" height="1" fill="#2C3B4F" />
<rect x="22" y="16" width="1" height="1" fill="#F4C682" />
<rect x="23" y="16" width="1" height="1" fill="#2B9A84" />
<rect x="24" y="16" width="1" height="1" fill="#2B9A84" />
<rect x="25" y="16" width="1" height="1" fill="#2C3B4F" />
<rect x="22" y="17" width="1" height="1" fill="#2C3B4F" />
</svg>